<svg width="200" height="36" viewBox="0 0 200 36" fill="none" xmlns="http://www.w3.org/2000/svg">
<path d="M67.3253 26.9023C65.9066 26.9023 64.6192 26.6702 63.4632 26.2061C62.3072 25.7419 61.3176 25.0895 60.4943 24.2487C59.6711 23.408 59.0318 22.3965 58.5764 21.2142C58.121 20.0319 57.8933 18.7226 57.8933 17.2864C57.8933 15.8501 58.1166 14.5496 58.5633 13.3848C59.0099 12.2201 59.6536 11.2217 60.4943 10.3897C61.3351 9.55773 62.3335 8.90966 63.4895 8.4455C64.6455 7.98135 65.9241 7.74927 67.3253 7.74927C68.7266 7.74927 70.0052 7.97697 71.1612 8.43237C72.3172 8.88777 73.3112 9.53583 74.1432 10.3766C74.9752 11.2173 75.6145 12.2201 76.0611 13.3848C76.5078 14.5496 76.7311 15.8501 76.7311 17.2864C76.7311 18.7226 76.5078 20.0538 76.0611 21.2273C75.6145 22.4009 74.9752 23.408 74.1432 24.2487C73.3112 25.0895 72.3172 25.7419 71.1612 26.2061C70.0052 26.6702 68.7266 26.9023 67.3253 26.9023ZM67.3516 22.83C68.2624 22.83 69.0418 22.611 69.6899 22.1732C70.338 21.7353 70.8372 21.1047 71.1875 20.2815C71.5378 19.4583 71.7129 18.4687 71.7129 17.3127C71.7129 16.1566 71.5378 15.167 71.1875 14.3438C70.8372 13.5206 70.3336 12.8944 69.6768 12.4653C69.0199 12.0362 68.2361 11.8216 67.3253 11.8216C66.4145 11.8216 65.6307 12.0362 64.9739 12.4653C64.3171 12.8944 63.8091 13.5206 63.4501 14.3438C63.091 15.167 62.9115 16.1566 62.9115 17.3127C62.9115 18.4687 63.091 19.4583 63.4501 20.2815C63.8091 21.1047 64.3171 21.7353 64.9739 22.1732C65.6307 22.611 66.4233 22.83 67.3516 22.83Z" fill="#273228"/>
<path d="M79.595 26.5869V8.06445H83.1418L92.3899 19.5983H91.6543V8.06445H96.147V26.5869H92.6001L83.352 15.0268H84.0877V26.5869H79.595Z" fill="#273228"/>
<path d="M103.871 26.5869V12.0054H98.0125V8.06445H114.591V12.0054H108.706V26.5869H103.871Z" fill="#273228"/>
<path d="M116.43 26.5869V8.06445H125.363C127.447 8.06445 129.058 8.57678 130.197 9.60143C131.335 10.6261 131.905 12.0492 131.905 13.8708C131.905 15.0618 131.651 16.0865 131.143 16.9447C130.635 17.803 129.89 18.4642 128.909 18.9284C127.929 19.3925 126.746 19.6246 125.363 19.6246L125.546 19.1517H126.834C127.569 19.1517 128.226 19.3312 128.804 19.6903C129.382 20.0493 129.864 20.5967 130.249 21.3323L133.139 26.5869H127.858L124.627 20.6755C124.487 20.4303 124.32 20.2332 124.128 20.0844C123.935 19.9355 123.725 19.8304 123.497 19.7691C123.269 19.7078 123.007 19.6771 122.709 19.6771H121.264V26.5869H116.43ZM121.264 16.2616H124.469C125.398 16.2616 126.103 16.0777 126.584 15.7099C127.066 15.3421 127.307 14.7816 127.307 14.0284C127.307 13.2753 127.066 12.6885 126.584 12.3207C126.103 11.9529 125.398 11.769 124.469 11.769H121.264V16.2616Z" fill="#273228"/>
<path d="M143.912 26.9023C142.493 26.9023 141.205 26.6702 140.049 26.2061C138.893 25.7419 137.904 25.0895 137.081 24.2487C136.257 23.408 135.618 22.3965 135.163 21.2142C134.707 20.0319 134.479 18.7226 134.479 17.2864C134.479 15.8501 134.703 14.5496 135.149 13.3848C135.596 12.2201 136.24 11.2217 137.081 10.3897C137.921 9.55773 138.92 8.90966 140.076 8.4455C141.232 7.98135 142.51 7.74927 143.912 7.74927C145.313 7.74927 146.591 7.97697 147.747 8.43237C148.903 8.88777 149.897 9.53583 150.729 10.3766C151.561 11.2173 152.201 12.2201 152.647 13.3848C153.094 14.5496 153.317 15.8501 153.317 17.2864C153.317 18.7226 153.094 20.0538 152.647 21.2273C152.201 22.4009 151.561 23.408 150.729 24.2487C149.897 25.0895 148.903 25.7419 147.747 26.2061C146.591 26.6702 145.313 26.9023 143.912 26.9023ZM143.938 22.83C144.849 22.83 145.628 22.611 146.276 22.1732C146.924 21.7353 147.423 21.1047 147.774 20.2815C148.124 19.4583 148.299 18.4687 148.299 17.3127C148.299 16.1566 148.124 15.167 147.774 14.3438C147.423 13.5206 146.92 12.8944 146.263 12.4653C145.606 12.0362 144.822 11.8216 143.912 11.8216C143.001 11.8216 142.217 12.0362 141.56 12.4653C140.903 12.8944 140.395 13.5206 140.036 14.3438C139.677 15.167 139.498 16.1566 139.498 17.3127C139.498 18.4687 139.677 19.4583 140.036 20.2815C140.395 21.1047 140.903 21.7353 141.56 22.1732C142.217 22.611 143.009 22.83 143.938 22.83Z" fill="#273228"/>
<path d="M156.181 26.5869V8.06445H161.015V22.5672H169.238V26.5869H156.181Z" fill="#273228"/>
<path d="M171.546 26.5869V8.06445H176.381V22.5672H184.604V26.5869H171.546Z" fill="#273228"/>
<path d="M186.916 26.5869V8.06445H200V11.7952H191.514V15.3158H199.422V19.0466H191.514V22.8562H200V26.5869H186.916Z" fill="#273228"/>
<path d="M22.0308 34.4821C22.0001 34.4777 21.9739 34.4602 21.9564 34.4339L15.7515 24.4502L9.54672 24.6034H0.219788C0.167242 24.6034 0.123454 24.5728 0.114696 24.5246C0.105938 24.4764 0.127832 24.4239 0.171621 24.402L17.56 15.837C17.56 15.837 17.5906 15.8239 17.6082 15.8239C17.6432 15.8239 17.6826 15.8414 17.7001 15.8764L23.7911 25.6762L56.5711 0.550459C56.5711 0.550459 56.6149 0.528564 56.6368 0.528564H65.4382C65.4864 0.528564 65.5258 0.554837 65.5433 0.598626C65.5608 0.642414 65.5433 0.690582 65.5083 0.721233L22.1184 34.4602C22.1184 34.4602 22.0746 34.4821 22.0527 34.4821C22.0483 34.4821 22.0395 34.4821 22.0352 34.4821H22.0308Z" fill="#3AAA35"/>
<path d="M65.4382 0.633477L22.0483 34.3724L15.8129 24.3361L9.54673 24.4894H0.2198L17.6082 15.9288L23.7648 25.8293L56.6412 0.637856H65.4426M65.4382 0.414535H56.6368C56.5886 0.414535 56.5404 0.43205 56.5054 0.462702L23.8218 25.5184L17.7965 15.8193C17.7571 15.7536 17.6826 15.7142 17.6126 15.7142C17.5819 15.7142 17.5469 15.723 17.5162 15.7361L0.123465 24.3011C0.0315094 24.3449 -0.0166578 24.45 0.00523636 24.5463C0.0271306 24.647 0.114707 24.7171 0.2198 24.7171H9.54673L15.6946 24.5595L21.8644 34.4863C21.8951 34.5388 21.952 34.5739 22.0133 34.587C22.0264 34.587 22.0396 34.587 22.0527 34.587C22.1009 34.587 22.149 34.5695 22.1884 34.5388L65.574 0.804252C65.6484 0.747327 65.6791 0.650992 65.6484 0.559037C65.6178 0.47146 65.5346 0.410156 65.4426 0.410156L65.4382 0.414535Z" fill="#3AAA35"/>
<path d="M25.6782 20.4785L30.5869 16.8616L30.3504 3.18213L24.3032 3.28722L24.6185 21.258L25.6782 20.4785Z" fill="#273228" stroke="#273228" stroke-width="0.437884" stroke-linecap="round" stroke-linejoin="round"/>
<path d="M61.7293 35.4542L55.6296 35.5899L44.446 20.5618L49.2978 16.9492L63.043 35.4235L61.7293 35.4542Z" fill="#273228" stroke="#273228" stroke-width="0.437884" stroke-linecap="round" stroke-linejoin="round"/>
</svg>
