<svg width="162" height="162" viewBox="0 0 162 162" fill="none" xmlns="http://www.w3.org/2000/svg">
<path d="M122.128 71.0822L119.054 76.6777C118.761 77.2425 118.356 77.7419 117.864 78.1455C117.372 78.5491 116.803 78.8487 116.192 79.0259C115.581 79.2032 114.94 79.2544 114.309 79.1766C113.677 79.0987 113.068 78.8934 112.519 78.5731C111.402 77.9572 110.576 76.9238 110.22 75.6995C109.864 74.4752 110.008 73.1597 110.62 72.0413L115.541 63.0892C115.587 63.0049 115.674 63.0535 115.723 62.966C115.681 62.8332 115.681 62.8332 115.723 62.7457C116.363 61.6541 117.396 60.8488 118.61 60.4951C119.825 60.1414 121.129 60.2662 122.255 60.8438C127.679 63.8246 134.434 61.9357 137.369 56.5994C140.347 51.1789 138.277 44.5499 132.853 41.5658C131.185 40.6411 129.302 40.1722 127.395 40.2063C125.488 40.2404 123.623 40.7764 121.989 41.7602C121.441 42.0967 120.831 42.3207 120.196 42.4189C119.56 42.5171 118.911 42.4877 118.287 42.3323C117.663 42.177 117.076 41.8988 116.561 41.5141C116.045 41.1294 115.612 40.6458 115.286 40.0916C114.964 39.5489 114.754 38.9479 114.666 38.3234C114.578 37.6988 114.614 37.063 114.773 36.4526C114.931 35.8422 115.209 35.2692 115.59 34.7666C115.971 34.264 116.448 33.8417 116.993 33.5242C120.078 31.6747 123.593 30.6653 127.189 30.5965C130.785 30.5278 134.336 31.402 137.489 33.1321C147.475 38.6239 151.201 51.2048 145.712 61.1873C143.469 65.2502 139.92 68.4374 135.64 70.233C131.36 72.0287 126.599 72.3279 122.128 71.0822ZM111.76 89.9293L110.908 91.478C110.615 92.0432 110.21 92.5429 109.718 92.9469C109.226 93.3509 108.657 93.6508 108.046 93.8283C107.435 94.0059 106.794 94.0574 106.162 93.9798C105.53 93.9021 104.92 93.6969 104.37 93.3767C103.252 92.7585 102.426 91.7219 102.072 90.4946C101.719 89.2674 101.867 87.9499 102.484 86.8319L103.336 85.2832C103.964 84.1794 104.998 83.3638 106.217 83.0093C107.437 82.6548 108.746 82.7894 109.868 83.3845C110.43 83.6826 110.925 84.09 111.327 84.5828C111.728 85.0756 112.026 85.6437 112.205 86.2537C112.383 86.8637 112.437 87.5032 112.364 88.1345C112.291 88.7658 112.092 89.376 111.78 89.9293H111.76Z" fill="#EBEBEB"/>
<path d="M102.591 30.3622L103.239 26.1016C103.293 25.6753 103.433 25.2644 103.651 24.8939C103.868 24.5233 104.159 24.2008 104.505 23.946C104.851 23.6912 105.245 23.5094 105.664 23.4115C106.082 23.3137 106.516 23.3018 106.939 23.3768C107.361 23.4397 107.767 23.5853 108.132 23.8054C108.498 24.0254 108.817 24.3155 109.07 24.6591C109.323 25.0026 109.506 25.3927 109.608 25.8071C109.71 26.2214 109.729 26.6519 109.664 27.0736L108.631 33.8776C108.631 33.9424 108.553 33.9327 108.543 33.9975C108.601 34.072 108.601 34.072 108.592 34.1401C108.439 34.9809 107.971 35.7317 107.283 36.2389C106.596 36.746 105.74 36.9711 104.892 36.8682C103.916 36.6971 102.917 36.7227 101.951 36.9435C100.986 37.1643 100.075 37.5758 99.271 38.1538C98.4671 38.7318 97.7868 39.4647 97.2702 40.3094C96.7536 41.1541 96.411 42.0936 96.2627 43.0725C96.1143 44.0515 96.1631 45.0502 96.4062 46.0101C96.6494 46.9699 97.0819 47.8715 97.6785 48.6617C98.275 49.452 99.0235 50.1151 99.88 50.6119C100.736 51.1088 101.684 51.4295 102.666 51.5551C103.937 51.7552 105.239 51.6175 106.441 51.1557C107.642 50.694 108.701 49.9244 109.512 48.9242C109.781 48.5833 110.115 48.2995 110.495 48.0891C110.875 47.8788 111.292 47.7463 111.724 47.6992C112.156 47.6522 112.592 47.6916 113.009 47.8151C113.425 47.9386 113.812 48.1439 114.148 48.4188C114.477 48.6888 114.75 49.0211 114.95 49.3966C115.151 49.7721 115.276 50.1834 115.317 50.6071C115.359 51.0307 115.316 51.4584 115.192 51.8657C115.069 52.273 114.866 52.6518 114.595 52.9807C113.15 54.7795 111.281 56.1912 109.155 57.0891C107.03 57.9869 104.715 58.3428 102.417 58.1247C100.12 57.9066 97.9134 57.1214 95.9948 55.8396C94.0762 54.5578 92.5059 52.8195 91.4251 50.7809C90.3443 48.7423 89.7868 46.4671 89.8026 44.1597C89.8184 41.8524 90.407 39.5851 91.5156 37.5614C92.6242 35.5378 94.2181 33.8211 96.154 32.5657C98.09 31.3103 100.308 30.5553 102.607 30.3687L102.591 30.3622ZM104.768 16.0058L104.947 14.8264C105 14.3998 105.14 13.9886 105.357 13.6176C105.575 13.2467 105.865 12.9239 106.212 12.6687C106.558 12.4136 106.952 12.2314 107.371 12.1334C107.789 12.0353 108.223 12.0234 108.647 12.0984C109.069 12.1612 109.475 12.307 109.841 12.5272C110.207 12.7475 110.525 13.0379 110.779 13.3818C111.032 13.7256 111.215 14.1162 111.316 14.5309C111.418 14.9456 111.437 15.3764 111.372 15.7984L111.193 16.9778C111.052 17.8234 110.587 18.5807 109.897 19.0893C109.207 19.598 108.346 19.8179 107.497 19.7026C107.073 19.6438 106.665 19.5009 106.297 19.2821C105.929 19.0633 105.608 18.7732 105.354 18.4287C105.1 18.0843 104.917 17.6925 104.816 17.2764C104.716 16.8603 104.7 16.4283 104.768 16.0058Z" fill="#EBEBEB"/>
<path d="M28.2819 39.8521L26.448 35.9641C26.2559 35.5796 26.1439 35.1601 26.1188 34.7311C26.0937 34.302 26.1561 33.8724 26.3022 33.4682C26.4482 33.0639 26.6749 32.6936 26.9684 32.3797C27.2619 32.0658 27.6162 31.8148 28.0097 31.6419C28.3955 31.4598 28.8134 31.3556 29.2395 31.3353C29.6656 31.3151 30.0916 31.3792 30.4929 31.524C30.8941 31.6688 31.2629 31.8915 31.5779 32.1791C31.8929 32.4668 32.148 32.8138 32.3286 33.2003L35.2641 39.4438C35.29 39.5021 35.2284 39.5313 35.2641 39.5929C35.3515 39.622 35.3515 39.622 35.3807 39.6836C35.7231 40.4666 35.7524 41.3512 35.4626 42.1551C35.1727 42.9591 34.5856 43.6214 33.8223 44.0057C32.9176 44.4064 32.102 44.9838 31.4235 45.704C30.745 46.4242 30.2171 47.2726 29.871 48.1996C29.5248 49.1265 29.3673 50.1133 29.4077 51.1019C29.4481 52.0905 29.6856 53.0612 30.1062 53.9568C30.5268 54.8524 31.1221 55.655 31.8571 56.3174C32.5921 56.9798 33.4521 57.4887 34.3864 57.8143C35.3208 58.1398 36.3108 58.2755 37.2983 58.2132C38.2858 58.151 39.2509 57.8921 40.137 57.4517C41.305 56.9089 42.3093 56.0678 43.0488 55.0132C43.7882 53.9587 44.2367 52.7279 44.349 51.4448C44.3828 51.0127 44.5022 50.5916 44.7003 50.2062C44.8985 49.8207 45.1713 49.4785 45.5031 49.1995C45.8348 48.9206 46.2187 48.7105 46.6325 48.5814C47.0462 48.4523 47.4815 48.4069 47.913 48.4478C48.3372 48.4884 48.7492 48.6122 49.1254 48.8123C49.5017 49.0123 49.8348 49.2846 50.1056 49.6135C50.3765 49.9425 50.5798 50.3216 50.704 50.7293C50.8281 51.1369 50.8706 51.565 50.829 51.9891C50.6252 54.2861 49.8545 56.4966 48.5859 58.4223C47.3173 60.348 45.5905 61.9287 43.5604 63.0226C41.5304 64.1165 39.2606 64.6894 36.9546 64.6899C34.6485 64.6904 32.3785 64.1185 30.3479 63.0255C28.3174 61.9325 26.59 60.3525 25.3205 58.4274C24.0511 56.5022 23.2794 54.2921 23.0746 51.9951C22.8698 49.6982 23.2383 47.3864 24.1472 45.2671C25.056 43.1477 26.4767 41.2871 28.2819 39.8521ZM22.1064 26.7074L21.601 25.6285C21.4087 25.244 21.2965 24.8245 21.2711 24.3953C21.2458 23.9662 21.3079 23.5364 21.4536 23.1319C21.5993 22.7275 21.8257 22.3568 22.1189 22.0425C22.4121 21.7281 22.7661 21.4766 23.1594 21.3031C23.5455 21.1205 23.9639 21.0161 24.3906 20.9958C24.8172 20.9756 25.2436 21.0399 25.6453 21.185C26.047 21.3301 26.416 21.5533 26.7311 21.8415C27.0463 22.1298 27.3013 22.4775 27.4816 22.8647L27.9903 23.9437C28.3435 24.7253 28.3783 25.6138 28.0874 26.4207C27.7964 27.2276 27.2026 27.8895 26.4318 28.2658C26.0463 28.4526 25.6274 28.5604 25.1997 28.5829C24.772 28.6055 24.344 28.5423 23.9411 28.3971C23.5381 28.2519 23.1682 28.0276 22.8531 27.7375C22.5381 27.4473 22.2842 27.0971 22.1064 26.7074Z" fill="#EBEBEB"/>
<path d="M98.82 117.11C98.82 117.11 91.0148 130.913 91.0116 130.922C89.7577 133.706 88.708 136.168 88.2835 137.493C88.2821 137.5 88.2821 137.506 88.2835 137.513C88.15 137.812 88.0879 138.138 88.1021 138.465C88.1021 138.465 88.1021 138.485 88.1021 138.491C88.6788 139.424 110.63 150.094 111.521 150.207C112.412 150.32 112.817 147.793 112.285 146.698C111.754 145.603 105.183 137.759 105.183 137.759L112.846 123.905L98.82 117.11Z" fill="#F7A9A0"/>
<path d="M111.168 150.129C110.277 150.013 88.6755 139.437 88.102 138.491C88.0996 138.484 88.0996 138.476 88.102 138.469C88.0872 138.142 88.1482 137.816 88.2802 137.516C88.2802 137.516 88.2802 137.5 88.2802 137.493C88.7047 136.168 89.7544 133.706 91.0051 130.923C91.0051 130.923 92.3205 128.509 92.8454 127.683L106.807 134.898L105.187 137.769C105.187 137.769 111.414 145.545 111.939 146.627C112.464 147.709 112.059 150.246 111.168 150.129Z" fill="#EBEBEB"/>
<path d="M111.566 149.831C110.672 149.695 88.7986 138.426 88.2381 137.467C88.0178 137.107 89.4758 133.825 91.3485 129.908L91.4068 129.788L105.598 136.9L105.468 137.136C105.468 137.136 111.913 145.191 112.418 146.312C112.924 147.433 112.464 149.97 111.566 149.831Z" fill="#263238"/>
<path d="M111.757 148.852C108.116 146.863 93.2472 139.181 89.4985 137.493C89.4661 137.477 89.4564 137.493 89.4985 137.516C93.0625 139.566 107.996 147.125 111.738 148.914C111.806 148.953 111.835 148.894 111.757 148.852Z" fill="white"/>
<path d="M106.638 137.787C105.326 136.77 103.437 136.08 101.794 136.54C101.733 136.559 101.759 136.65 101.814 136.66C103.43 136.921 105.014 137.356 106.538 137.956C106.559 137.96 106.581 137.958 106.6 137.949C106.62 137.941 106.637 137.926 106.648 137.907C106.659 137.889 106.664 137.867 106.662 137.846C106.66 137.824 106.652 137.804 106.638 137.787Z" fill="white"/>
<path d="M107.361 138.961C106.048 137.94 104.16 137.25 102.517 137.713C102.455 137.713 102.481 137.82 102.536 137.83C104.153 138.092 105.736 138.526 107.26 139.126C107.281 139.13 107.302 139.127 107.321 139.119C107.34 139.11 107.356 139.096 107.367 139.078C107.378 139.06 107.383 139.039 107.382 139.018C107.381 138.998 107.373 138.977 107.361 138.961Z" fill="white"/>
<path d="M108.08 140.13C106.784 139.113 104.882 138.42 103.239 138.883C103.174 138.902 103.203 138.99 103.255 139C104.872 139.267 106.456 139.707 107.979 140.312C108.003 140.325 108.032 140.328 108.058 140.321C108.085 140.313 108.107 140.295 108.12 140.271C108.134 140.247 108.137 140.219 108.129 140.193C108.122 140.166 108.104 140.144 108.08 140.13Z" fill="white"/>
<path d="M93.7591 134.097C92.5829 132.477 90.0784 134.315 91.2578 135.928C92.4371 137.542 94.9319 135.711 93.7591 134.097Z" fill="white"/>
<path opacity="0.1" d="M106.434 138.349L108.008 148.169C109.988 149.141 111.355 149.789 111.572 149.834C112.467 149.974 112.927 147.427 112.428 146.313C112.039 145.477 108.251 140.636 106.434 138.349Z" fill="black"/>
<path d="M112.305 149.218C112.629 149.568 111.858 150.838 111.521 150.799C111.184 150.761 87.3924 138.371 87.0328 138.069C86.6731 137.768 87.5706 136.394 88.0825 136.56C88.5944 136.725 112.305 149.218 112.305 149.218Z" fill="#0040FE"/>
<path d="M92.813 126.383L108.54 134.784C108.54 134.784 128.395 106.486 128.793 99.0532C129.341 88.7857 120.573 56.188 120.573 56.188L106.596 56.0908C106.596 56.0908 112.282 89.6119 111.819 95.3305C111.573 98.3242 92.813 126.383 92.813 126.383Z" fill="#263238"/>
<path d="M109.917 131.544C109.107 130.961 101.648 126.642 95.9849 123.881C95.9772 123.878 95.9682 123.877 95.96 123.88C95.9518 123.882 95.9451 123.888 95.9412 123.896C95.9373 123.904 95.9367 123.913 95.9394 123.921C95.9422 123.929 95.948 123.936 95.9558 123.94C97.6762 125.077 108.806 131.175 109.888 131.606C109.91 131.606 109.953 131.544 109.917 131.544Z" fill="#37474F"/>
<path d="M113.756 88.1708C113.108 83.2655 112.392 78.3666 111.579 73.4839C110.766 68.6012 109.897 63.6829 108.87 58.8197C108.747 58.2235 108.614 57.6306 108.485 57.0377C108.481 57.0188 108.47 57.0022 108.454 56.9915C108.437 56.9809 108.418 56.9771 108.399 56.981C108.38 56.9848 108.363 56.9961 108.353 57.0122C108.342 57.0283 108.338 57.0479 108.342 57.0668C109.204 61.8912 110.088 66.7155 110.882 71.5529C111.676 76.3902 112.428 81.2372 113.076 86.094C113.24 87.2949 113.4 88.4981 113.555 89.7033C113.748 90.9436 113.867 92.1943 113.912 93.4488C113.932 94.6466 113.729 95.8378 113.312 96.9609C112.866 98.0586 112.324 99.1146 111.692 100.117C109.188 104.397 97.8478 123.101 97.5497 123.646C97.5302 123.681 97.5821 123.717 97.6048 123.681C100.323 119.469 108.757 105.988 111.323 101.649C112.48 99.689 113.808 97.7029 114.184 95.4122C114.576 93.0211 114.07 90.5328 113.756 88.1708Z" fill="#37474F"/>
<path d="M109.729 126.383C109.729 126.383 109.57 142.337 109.57 142.346C109.655 145.398 109.784 148.071 109.979 149.448C109.977 149.456 109.977 149.464 109.979 149.471C109.99 149.798 110.076 150.119 110.231 150.407C110.231 150.407 110.231 150.407 110.231 150.427C111.158 151.017 135.565 151.052 136.414 150.767C137.263 150.482 136.521 148.032 135.575 147.274C134.628 146.516 125.288 142.327 125.288 142.327V126.383H109.729Z" fill="#F7A9A0"/>
<path d="M109.603 139.071C109.603 139.071 109.57 142.337 109.57 142.346C109.655 145.398 109.784 148.071 109.979 149.448C109.977 149.456 109.977 149.464 109.979 149.471C110.026 149.792 110.111 150.106 110.231 150.407C110.231 150.407 110.231 150.407 110.231 150.427C111.158 151.016 135.565 151.052 136.414 150.767C137.263 150.482 136.521 148.032 135.575 147.274C134.628 146.516 125.288 142.327 125.288 142.327V138.996L109.603 139.071Z" fill="#EBEBEB"/>
<path d="M136.446 150.738C135.581 151.013 110.983 150.579 110.059 149.967C109.703 149.74 109.557 146.153 109.505 141.812V141.676L125.381 141.779V142.048C125.381 142.048 134.726 146.426 135.672 147.206C136.618 147.987 137.311 150.466 136.446 150.738Z" fill="#263238"/>
<path d="M136.184 149.779C132.04 149.604 115.305 149.29 111.197 149.433C111.161 149.433 111.161 149.455 111.197 149.458C115.302 149.721 132.04 149.899 136.187 149.847C136.271 149.847 136.271 149.782 136.184 149.779Z" fill="white"/>
<path d="M126.7 142.119C125.08 141.795 123.071 142 121.805 143.143C121.756 143.185 121.821 143.257 121.873 143.24C123.439 142.764 125.052 142.456 126.684 142.324C126.709 142.322 126.732 142.311 126.749 142.293C126.766 142.276 126.777 142.253 126.779 142.228C126.781 142.204 126.774 142.179 126.76 142.159C126.745 142.139 126.724 142.125 126.7 142.119Z" fill="white"/>
<path d="M127.863 142.848C126.243 142.524 124.238 142.732 122.971 143.872C122.922 143.918 122.971 143.986 123.039 143.969C124.606 143.493 126.221 143.187 127.854 143.056C127.867 143.056 127.881 143.054 127.894 143.05C127.906 143.045 127.918 143.038 127.928 143.029C127.938 143.02 127.947 143.009 127.952 142.996C127.958 142.984 127.961 142.971 127.962 142.957C127.963 142.943 127.961 142.93 127.956 142.917C127.951 142.904 127.944 142.892 127.935 142.882C127.926 142.872 127.915 142.864 127.903 142.858C127.89 142.852 127.877 142.849 127.863 142.848Z" fill="white"/>
<path d="M129.03 143.581C127.41 143.257 125.404 143.461 124.137 144.605C124.086 144.647 124.137 144.715 124.202 144.702C125.771 144.226 127.386 143.918 129.02 143.785C129.044 143.782 129.067 143.771 129.083 143.753C129.1 143.735 129.11 143.712 129.111 143.687C129.112 143.663 129.105 143.639 129.09 143.62C129.075 143.6 129.054 143.587 129.03 143.581Z" fill="white"/>
<path d="M136.838 149.863C137.275 150.042 137.162 151.516 136.838 151.629C136.514 151.743 109.697 151.153 109.243 151.043C108.789 150.933 108.987 149.3 109.518 149.225C110.05 149.151 136.838 149.863 136.838 149.863Z" fill="#0040FE"/>
<path d="M113.517 144.505C111.751 143.581 110.312 146.325 112.081 147.252C113.85 148.179 115.289 145.428 113.517 144.505Z" fill="white"/>
<path d="M120.402 56.1526V56.1688C120.308 56.4572 115.282 70.2272 114.809 70.4475C114.275 70.6938 125.913 90.2439 126.6 99.3256C127.04 105.132 126.178 138.005 126.178 138.005H109.155C109.155 138.005 109.975 108.453 110.364 99.0891C110.513 95.4571 98.6806 77.3811 98.5348 66.1221C98.4894 62.5581 101.039 56.0781 101.039 56.0781L120.402 56.1526Z" fill="#263238"/>
<path d="M110.461 98.8361C110.461 98.6838 110.341 98.6352 110.332 98.7907C109.946 103.858 109.858 108.896 109.615 113.973C109.372 119.05 109.512 120.256 109.291 125.313C109.165 128.178 109.291 131.048 109.22 133.916C109.222 133.923 109.227 133.929 109.233 133.934C109.239 133.938 109.247 133.941 109.254 133.941C109.262 133.941 109.269 133.938 109.275 133.934C109.281 133.929 109.286 133.923 109.288 133.916C109.813 128.874 110.458 101.703 110.461 98.8361Z" fill="#37474F"/>
<path d="M126.593 99.5237C126.573 98.2737 126.458 97.0271 126.25 95.7944C126.017 94.5949 125.665 93.4217 125.2 92.292C124.26 89.9203 123.149 87.6102 122.086 85.2903C121.024 82.9705 119.912 80.6053 118.778 78.2854C118.13 76.9894 117.489 75.6881 116.854 74.3813C116.206 73.0658 115.493 71.7892 114.809 70.4738C114.804 70.4631 114.794 70.455 114.783 70.4513C114.771 70.4477 114.758 70.4488 114.748 70.4544C114.737 70.46 114.729 70.4696 114.725 70.4811C114.722 70.4927 114.723 70.5052 114.728 70.5159C115.817 72.8552 116.896 75.2042 117.968 77.5467C119.041 79.8892 120.129 82.2383 121.208 84.5873C122.287 86.9363 123.318 89.214 124.312 91.55C124.807 92.6628 125.213 93.8134 125.524 94.9909C125.809 96.2079 125.981 97.4487 126.036 98.6975C126.201 101.613 126.282 104.529 126.567 107.416C126.567 107.455 126.629 107.452 126.632 107.416C126.713 104.789 126.684 102.148 126.593 99.5237Z" fill="#37474F"/>
<path d="M124.938 134.58C123.949 134.46 116.41 134.256 110.105 134.58C110.063 134.58 110.066 134.641 110.105 134.645C112.162 134.81 123.778 134.79 124.931 134.645C124.97 134.648 124.983 134.586 124.938 134.58Z" fill="#37474F"/>
<path d="M117.155 69.6832C115.331 70.1411 113.551 70.758 111.835 71.5267C111.822 71.5327 111.812 71.5432 111.806 71.5563C111.8 71.5694 111.8 71.584 111.804 71.5976C111.808 71.6111 111.818 71.6226 111.83 71.6299C111.842 71.6371 111.857 71.6396 111.871 71.6369C113.659 71.0764 115.474 70.5515 117.226 69.897C117.252 69.8853 117.272 69.8647 117.283 69.8391C117.294 69.8135 117.295 69.7847 117.286 69.7582C117.278 69.7317 117.259 69.7094 117.235 69.6956C117.211 69.6818 117.182 69.6773 117.155 69.6832Z" fill="#37474F"/>
<path d="M118.872 58.0189C118.872 57.9606 118.768 57.9347 118.765 57.9995C118.569 59.9083 118.277 61.8061 117.89 63.6857C117.722 64.5572 116.513 69.3557 115.023 68.8437C114.774 68.7563 114.667 68.4938 114.667 68.1018C114.725 67.5988 114.845 67.1049 115.023 66.6308C115.298 65.6297 115.538 64.6188 115.733 63.5982C116.106 61.6989 116.283 59.7664 116.261 57.831C116.258 57.8198 116.251 57.8099 116.242 57.8029C116.233 57.7958 116.222 57.792 116.21 57.792C116.199 57.792 116.188 57.7958 116.179 57.8029C116.17 57.8099 116.163 57.8198 116.16 57.831C115.934 60.4947 115.506 63.1374 114.88 65.7366C114.556 66.9807 113.727 68.8243 115.029 69.1548C116.332 69.4853 117.56 66.3878 117.813 65.5292C118.489 63.0821 118.845 60.5576 118.872 58.0189Z" fill="#37474F"/>
<path d="M115.049 68.9798C114.879 69.2937 114.73 69.6184 114.602 69.9518C114.476 70.2073 114.399 70.4843 114.375 70.7682C114.375 70.8233 114.447 70.833 114.479 70.8006C114.663 70.5674 114.811 70.3074 114.916 70.0295C115.065 69.7314 115.218 69.4334 115.36 69.1288C115.38 69.0876 115.383 69.0402 115.367 68.997C115.352 68.9539 115.32 68.9185 115.279 68.8988C115.238 68.879 115.191 68.8764 115.147 68.8916C115.104 68.9068 115.069 68.9385 115.049 68.9798Z" fill="#37474F"/>
<path d="M112.204 103.836C112.289 101.415 112.557 98.8786 111.767 96.5458C111.333 95.4048 110.814 94.2979 110.215 93.2345C109.621 92.0983 109.042 90.9546 108.478 89.8033C106.21 85.2122 104.062 80.5499 102.147 75.7935C101.227 73.5061 100.404 71.1571 100.074 68.7012C99.7712 66.1208 99.9325 63.5071 100.55 60.9835C100.693 60.3517 100.845 59.7264 101.017 59.1043C101.017 59.0589 100.961 59.033 100.949 59.0784C100.141 61.4589 99.6934 63.9465 99.6201 66.4591C99.6371 68.8665 100.07 71.2527 100.9 73.5126C101.716 75.8875 102.737 78.1976 103.745 80.4948C104.781 82.8708 105.861 85.223 106.985 87.5515C108.099 89.8713 109.285 92.1523 110.461 94.443C111.064 95.5308 111.501 96.7026 111.757 97.9195C111.94 99.1799 111.986 100.456 111.896 101.727C111.696 107.076 111.248 124.886 111.167 130.222C111.167 130.898 111.16 131.577 111.145 132.257C111.145 132.269 111.15 132.281 111.158 132.289C111.167 132.298 111.178 132.302 111.19 132.302C111.202 132.302 111.214 132.298 111.222 132.289C111.231 132.281 111.236 132.269 111.236 132.257C111.576 126.937 112.01 109.169 112.204 103.836Z" fill="#37474F"/>
<path d="M108.388 59.6166C108.388 59.5777 108.326 59.5842 108.323 59.6166C108.122 61.0876 107.999 62.6169 107.296 63.9518C106.648 65.1797 105.507 65.967 104.266 66.5211C103.544 66.8315 102.807 67.104 102.057 67.3375C102.002 67.3537 102.014 67.438 102.073 67.425C103.482 67.1334 104.911 66.8062 106.136 66.0156C107.432 65.17 108.119 63.8157 108.332 62.2993C108.443 61.4094 108.461 60.5104 108.388 59.6166Z" fill="#37474F"/>
<path d="M114.346 37.3415C116.893 39.4637 124.827 44.2524 128.55 43.9803C131.058 43.7988 137.71 38.5144 139.012 36.6546C139.547 35.8965 134.152 30.544 133.294 31.0235C132.347 31.5419 128.071 36.7097 127.345 36.8555C126.619 37.0013 119.851 35.3003 116.047 34.8013C113.769 34.5065 113.18 36.3663 114.346 37.3415Z" fill="#F7A9A0"/>
<path d="M137.515 38.1961C138.895 37.1917 142.699 32.6881 143.244 31.6157C143.788 30.5433 145.155 27.4037 144.39 26.9015C143.626 26.3993 143.15 27.2903 143.15 27.2903C143.15 27.2903 143.571 25.7383 142.696 25.4305C141.999 25.1875 141.267 26.4025 141.267 26.4025C141.267 26.4025 141.64 24.6789 140.733 24.4845C139.906 24.3095 139.453 25.8226 139.453 25.8226C139.453 25.8226 139.615 24.3484 138.789 24.3322C137.791 24.3095 137.493 26.8626 136.812 27.9837C136.653 28.2396 131.249 32.9441 131.249 32.9441L137.515 38.1961Z" fill="#F7A9A0"/>
<path d="M139.398 25.7683C138.989 27.6573 138.766 28.4284 137.603 29.8767C137.577 29.9058 137.603 29.9447 137.642 29.9188C138.912 28.6033 139.242 27.7091 139.492 25.7716C139.501 25.6809 139.417 25.6809 139.398 25.7683Z" fill="#263238"/>
<path d="M141.264 26.4096C140.868 28.3536 140.392 29.1571 139.284 30.7674C139.268 30.7901 139.307 30.816 139.323 30.7966C140.545 29.3094 141.189 28.3892 141.329 26.4096C141.322 26.3189 141.264 26.3221 141.264 26.4096Z" fill="#263238"/>
<path d="M143.095 27.372C142.579 29.2123 142.123 30.1713 140.856 31.584C140.851 31.5867 140.847 31.5905 140.844 31.595C140.841 31.5996 140.839 31.6047 140.838 31.6102C140.837 31.6156 140.838 31.6212 140.84 31.6264C140.841 31.6316 140.844 31.6363 140.848 31.6402C140.852 31.644 140.857 31.647 140.862 31.6487C140.867 31.6505 140.873 31.651 140.878 31.6503C140.883 31.6495 140.889 31.6476 140.893 31.6445C140.898 31.6414 140.902 31.6373 140.904 31.6326C142.346 30.3106 142.916 29.1183 143.15 27.3849C143.166 27.2748 143.127 27.2553 143.095 27.372Z" fill="#263238"/>
<path d="M131.249 32.948C131.249 32.948 132.347 31.004 132.827 30.032C133.306 29.06 134.275 26.2055 135.173 26.0306C136.184 25.8329 136.145 28.5966 135.315 30.3009C135.315 30.3009 137.583 32.4296 136.87 34.1046C136.712 34.4675 135.25 35.8737 134.787 35.8996L131.249 32.948Z" fill="#F7A9A0"/>
<path d="M135.293 30.5145C136.209 31.3116 137.062 32.6659 136.874 33.8647C136.876 33.8704 136.879 33.8754 136.884 33.8789C136.889 33.8824 136.895 33.8843 136.901 33.8843C136.907 33.8843 136.913 33.8824 136.918 33.8789C136.923 33.8754 136.927 33.8704 136.929 33.8647C137.301 32.6076 136.333 31.0297 135.467 30.3655C135.302 30.2521 135.053 30.3072 135.293 30.5145Z" fill="#263238"/>
<path opacity="0.1" d="M141.06 24.6698L137.068 33.7677L135.772 36.7323L133.773 41.2877C131.774 42.7166 129.72 43.8992 128.557 43.9834C124.834 44.2523 116.893 39.4474 114.352 37.3414C113.186 36.3694 113.776 34.5064 116.053 34.8045C119.857 35.3034 126.622 37.0077 127.351 36.8586C127.815 36.7647 129.713 34.636 131.278 32.9706L131.255 32.9512C131.255 32.9512 132.354 31.0072 132.833 30.0352C133.313 29.0632 134.282 26.2088 135.179 26.0338C135.947 25.8815 136.112 27.4497 135.778 28.9498C136.362 28.4249 136.776 28.0394 136.819 27.9778C137.512 26.8568 137.791 24.3036 138.795 24.3263C139.621 24.3263 139.443 25.8167 139.443 25.8167C139.443 25.8167 139.9 24.3036 140.739 24.4786C140.863 24.5068 140.976 24.5737 141.06 24.6698Z" fill="black"/>
<path d="M124.636 44.2072L127.228 36.658C127.228 36.658 119.663 34.8177 115.888 34.5617C112.723 34.3447 111.854 36.5414 115.208 38.8288C118.386 40.9931 124.636 44.2072 124.636 44.2072Z" fill="#455A64"/>
<path d="M115.525 34.5449L114.268 38.1089C114.164 38.0117 114.064 37.9178 113.977 37.8238L115.13 34.5838C115.256 34.5482 115.386 34.5449 115.525 34.5449ZM117.307 34.7037L115.726 39.1749L116.05 39.379L117.686 34.7555L117.307 34.7037ZM119.426 35.0277L117.557 40.3056L117.881 40.5L119.792 35.0925L119.426 35.0277ZM121.519 35.4132L119.41 41.3813L119.734 41.566L121.885 35.4845L121.519 35.4132ZM123.599 35.8377L121.273 42.4149L121.597 42.5931L123.959 35.9187L123.599 35.8377ZM125.67 36.2978L123.149 43.4258L123.473 43.6007L126.036 36.3788L125.67 36.2978Z" fill="#37474F"/>
<path d="M125.164 36.8715C124.951 37.3072 124.764 37.7551 124.604 38.2129C124.422 38.6794 124.257 39.1492 124.089 39.619C123.92 40.0888 123.327 41.981 123.178 42.454C123.178 42.4767 123.211 42.4864 123.217 42.454C123.402 41.9907 124.134 40.1439 124.296 39.6838C124.458 39.2237 124.62 38.7637 124.769 38.2971C124.938 37.8311 125.077 37.3549 125.187 36.8715C125.187 36.8715 125.171 36.8618 125.164 36.8715Z" fill="#263238"/>
<path opacity="0.1" d="M125.388 41.9841L124.63 44.2068C124.63 44.2068 118.38 40.9895 115.205 38.8251C112.253 36.8163 112.567 34.8788 114.832 34.584L125.388 41.9841Z" fill="black"/>
<path d="M122.43 61.2358L98.9397 59.3793C99.0304 58.9354 105.867 39.1131 111.511 34.8816C113.455 33.4269 116.818 34.8816 117.223 35.2834C121.176 39.0483 122.767 60.9831 122.43 61.2358Z" fill="#455A64"/>
<path d="M118.185 36.6124L110.283 36C110.393 35.8801 110.503 35.7635 110.607 35.6533L117.952 36.2236C118.036 36.3499 118.111 36.4795 118.185 36.6124ZM118.973 38.4138L108.964 37.6394C108.88 37.7528 108.796 37.8695 108.715 37.9894L119.109 38.7929C119.063 38.6654 119.018 38.5402 118.973 38.417V38.4138ZM119.663 40.5749L107.639 39.645C107.565 39.7616 107.493 39.8815 107.422 40.0014L119.766 40.954C119.731 40.8244 119.695 40.7045 119.663 40.5781V40.5749ZM120.201 42.7262L106.473 41.6635L106.278 42.0199L120.285 43.0924C120.259 42.979 120.23 42.8526 120.204 42.7295L120.201 42.7262ZM120.651 44.8711L105.423 43.6918C105.361 43.8116 105.3 43.9315 105.242 44.0514L120.735 45.2502C120.7 45.1238 120.674 44.9975 120.651 44.8744V44.8711ZM121.033 47.0095L104.419 45.7135C104.36 45.8302 104.305 45.95 104.25 46.0699L121.098 47.3659C121.075 47.2655 121.056 47.1391 121.033 47.0128V47.0095ZM121.357 49.1447L103.472 47.7612L103.314 48.1208L121.412 49.5205C121.403 49.3974 121.386 49.2743 121.367 49.1479L121.357 49.1447ZM121.649 51.2798L102.585 49.8056C102.533 49.9255 102.481 50.0454 102.432 50.1653L121.694 51.6557C121.691 51.5326 121.675 51.4094 121.659 51.2831L121.649 51.2798ZM121.905 53.4085L101.736 51.8404C101.684 51.9613 101.635 52.0812 101.59 52.2L121.953 53.7844L121.905 53.4085ZM122.125 55.5372L100.919 53.8978C100.874 54.0176 100.825 54.1375 100.78 54.2542L122.164 55.9098C122.148 55.7899 122.148 55.6668 122.148 55.5404L122.125 55.5372ZM122.307 57.6594L100.139 55.9454C100.093 56.0686 100.048 56.1917 100.002 56.3083L122.333 58.0352C122.336 57.9154 122.326 57.7922 122.316 57.6724L122.307 57.6594ZM122.439 59.7784L99.3998 57.9964L99.2734 58.3592L122.472 60.1542C122.472 60.0408 122.452 59.9144 122.449 59.7816L122.439 59.7784Z" fill="#37474F"/>
<path d="M116.484 38.4849C115.208 38.7182 113.144 36.6835 112.366 35.0764C112.314 34.9663 112.535 33.8485 112.742 32.4844C112.862 31.6518 112.975 30.7186 113.021 29.8633C113.021 29.6851 118.331 31.4412 118.331 31.4412C117.97 32.4978 117.74 33.5946 117.644 34.7071C117.641 34.8251 117.647 34.9433 117.664 35.0602C117.664 35.0602 117.664 35.0959 117.664 35.1186C117.745 35.7828 117.716 38.2549 116.484 38.4849Z" fill="#F7A9A0"/>
<path d="M113.348 29.8926C113.526 31.3538 114.249 34.9016 117.116 35.1122C117.3 35.1269 117.484 35.1269 117.667 35.1122C117.669 35.0928 117.669 35.0733 117.667 35.0539C117.651 34.9369 117.644 34.8188 117.648 34.7007C117.74 33.586 117.97 32.4869 118.331 31.4283C118.331 31.4283 114.505 30.1647 113.348 29.8926Z" fill="#263238"/>
<path d="M111.715 24.129C111.294 26.073 112.755 31.4935 114.21 32.6048C116.322 34.2248 119.546 34.1211 120.858 31.6328C122.132 29.2255 120.1 22.2077 118.497 21.2195C116.135 19.7647 112.337 21.2486 111.715 24.129Z" fill="#F7A9A0"/>
<path d="M112.554 29.8083C113.649 29.5685 114.174 28.2595 113.957 26.1309C113.74 24.0022 113.957 23.1598 114.903 22.6932C115.849 22.2267 117.145 22.9783 117.68 22.8682C118.215 22.758 117.923 21.8962 118.364 21.8184C118.581 21.7763 119.303 22.3141 120.068 23.7171C120.068 23.7171 119.391 19.6995 115.088 20.6877C111.087 21.624 111.288 24.9483 111.456 25.9203C111.727 27.2412 112.094 28.5406 112.554 29.8083Z" fill="#263238"/>
<path d="M113.834 28.5574C113.834 28.5574 112.408 26.9114 111.65 27.4363C110.892 27.9612 112.091 30.4366 113.073 30.6763C113.196 30.7168 113.327 30.732 113.456 30.7212C113.586 30.7103 113.712 30.6736 113.827 30.6132C113.942 30.5528 114.044 30.4699 114.126 30.3694C114.209 30.269 114.27 30.153 114.307 30.0283L113.834 28.5574Z" fill="#F7A9A0"/>
<path d="M112.01 28.1397C112.01 28.1397 112.01 28.1592 112.01 28.1656C112.7 28.3633 113.112 28.9432 113.423 29.5556C113.377 29.4931 113.319 29.4412 113.252 29.4034C113.184 29.3656 113.11 29.3428 113.033 29.3366C112.956 29.3305 112.878 29.3411 112.806 29.3677C112.733 29.3943 112.667 29.4363 112.613 29.4908C112.596 29.4908 112.613 29.5297 112.635 29.5264C112.747 29.4765 112.872 29.4628 112.992 29.4872C113.113 29.5116 113.222 29.5729 113.306 29.6625C113.445 29.8142 113.568 29.9804 113.672 30.1582C113.711 30.2133 113.815 30.1582 113.786 30.1064C113.724 29.2446 112.927 28.13 112.01 28.1397Z" fill="#263238"/>
<path d="M119.614 26.4775C119.614 26.4775 119.647 26.4775 119.65 26.5035C119.734 26.8696 119.893 27.2778 120.256 27.3135V27.3329C119.841 27.3847 119.634 26.8404 119.614 26.4775Z" fill="#263238"/>
<path d="M119.838 26.0113C120.414 25.8105 120.771 26.9833 120.236 27.1615C119.702 27.3397 119.355 26.1766 119.838 26.0113Z" fill="#263238"/>
<path d="M116.737 26.8273C116.903 26.837 117.07 26.837 117.236 26.8273C117.413 26.849 117.592 26.8102 117.745 26.7171C117.791 26.6786 117.822 26.625 117.833 26.5657C117.844 26.5065 117.833 26.4454 117.803 26.3931C117.736 26.3012 117.646 26.2285 117.542 26.1824C117.438 26.1363 117.323 26.1185 117.21 26.1307C116.975 26.1222 116.745 26.1993 116.562 26.3478C116.521 26.3845 116.493 26.4326 116.48 26.4858C116.466 26.539 116.469 26.5949 116.488 26.6464C116.507 26.6979 116.541 26.7427 116.585 26.7749C116.629 26.8071 116.682 26.8253 116.737 26.8273Z" fill="#263238"/>
<path d="M119.954 25.0976C119.783 25.0976 119.63 25.0619 119.455 25.0425C119.278 25.0474 119.104 24.9939 118.96 24.8902C118.919 24.8476 118.893 24.7923 118.888 24.7333C118.883 24.6744 118.898 24.6154 118.931 24.5662C119.007 24.48 119.106 24.416 119.216 24.3807C119.326 24.3453 119.443 24.34 119.556 24.3653C119.789 24.3767 120.009 24.4736 120.175 24.6375C120.212 24.678 120.235 24.7286 120.243 24.7827C120.251 24.8369 120.243 24.8922 120.219 24.9416C120.196 24.991 120.158 25.0322 120.111 25.06C120.063 25.0877 120.009 25.1008 119.954 25.0976Z" fill="#263238"/>
<path d="M116.663 27.2905C116.842 27.1715 117.053 27.1104 117.268 27.1155C117.381 27.1233 117.491 27.1518 117.592 27.1998C117.704 27.2546 117.803 27.3331 117.881 27.4298L118.023 27.608L117.81 27.6242C117.658 27.6377 117.508 27.667 117.362 27.7117C117.212 27.7565 117.075 27.8403 116.967 27.9547C117.015 27.7795 117.13 27.6304 117.288 27.54C117.44 27.4516 117.609 27.3963 117.784 27.378L117.712 27.5756C117.592 27.4368 117.427 27.344 117.246 27.3132C117.053 27.2801 116.857 27.2725 116.663 27.2905Z" fill="#263238"/>
<path d="M117.46 28.0688C117.608 27.9964 117.747 27.9049 117.871 27.7966C117.897 27.7674 118.004 27.6443 117.991 27.6184C117.955 27.5376 117.909 27.4615 117.855 27.3916C117.929 27.4494 117.99 27.5209 118.036 27.6022C118.04 27.6507 118.034 27.6994 118.016 27.7449C117.999 27.7903 117.971 27.8312 117.936 27.8646C117.8 27.9772 117.635 28.0481 117.46 28.0688Z" fill="#263238"/>
<path d="M118.341 29.8797C118.768 29.6133 119.252 29.4502 119.753 29.4034C119.796 29.4034 119.812 29.2933 119.805 29.2512L119.556 28.4833C119.669 28.506 120.252 28.5967 120.204 28.4509C119.823 27.2072 119.318 26.0055 118.694 24.8642C118.69 24.8563 118.683 24.8504 118.674 24.8475C118.666 24.8447 118.656 24.8452 118.648 24.8488C118.64 24.8525 118.633 24.8591 118.63 24.8674C118.626 24.8757 118.626 24.8849 118.629 24.8934C118.976 26.0436 119.52 27.1257 119.886 28.2792C119.678 28.2505 119.466 28.2505 119.258 28.2792C119.219 28.3018 119.549 29.0762 119.582 29.2058C119.096 29.2071 118.631 29.3991 118.286 29.7404C118.163 29.8668 118.143 30.0288 118.341 29.8797Z" fill="#263238"/>
<path d="M119.015 29.3125C119.015 29.3125 119.115 30.048 118.772 30.3137C118.428 30.5793 117.946 30.1776 118.299 29.6916C118.498 29.5014 118.746 29.3702 119.015 29.3125Z" fill="#263238"/>
<path d="M119.018 29.7501C119.013 29.9631 118.925 30.1656 118.772 30.3139C118.736 30.35 118.693 30.3779 118.645 30.3958C118.597 30.4136 118.546 30.421 118.495 30.4173C118.445 30.4136 118.395 30.399 118.351 30.3744C118.306 30.3498 118.267 30.3159 118.237 30.275C118.235 30.2698 118.235 30.264 118.237 30.2588C118.535 29.7728 118.82 29.7047 119.018 29.7501Z" fill="#FF99BA"/>
<path d="M131.771 29.1635L119.643 28.2887L119.702 25.525L131.855 25.1621L131.771 29.1635Z" fill="#37474F"/>
<path d="M138.549 30.4303L126.428 29.2056L126.519 24.8932L138.682 24.1836L138.549 30.4303Z" fill="#455A64"/>
<path d="M144.3 32.0046L135.114 30.391L135.247 24.0763L144.494 22.8516L144.3 32.0046Z" fill="#37474F"/>
<path d="M145.022 27.4394C144.974 29.7495 144.656 31.6125 144.309 31.606C143.963 31.5995 143.723 29.7236 143.772 27.4134C143.82 25.1033 144.138 23.2403 144.484 23.25C144.831 23.2598 145.071 25.1325 145.022 27.4394Z" fill="#0040FE"/>
<path d="M111.236 39.6219C114.825 44.0769 124.675 51.7168 127.05 50.9619C131.437 49.5752 134.055 37.558 134.79 35.2414C135.114 34.2694 126.486 32.8633 126.127 33.913C125.803 34.8267 124.902 41.1803 124.089 41.3456C123.765 41.4169 119.157 39.0776 113.86 37.4155C109.8 36.1324 110.176 38.3032 111.236 39.6219Z" fill="#F7A9A0"/>
<path d="M125.712 35.8672C125.712 35.8672 126.007 34.8952 126.004 32.4004C126.004 30.4564 127.345 25.8848 132.377 23.7593C134.321 22.9461 135.72 23.944 133.867 25.1461C132.571 25.9917 131.583 26.468 131.236 26.8633C131.236 26.8633 133.605 27.0933 134.291 28.2889C134.891 29.3306 135.416 30.4133 135.863 31.5289C135.676 31.6575 135.481 31.7744 135.28 31.8788C135.507 32.376 135.589 32.927 135.518 33.4689C135.447 34.0109 135.225 34.5219 134.878 34.9438L134.298 36.9915L125.712 35.8672Z" fill="#F7A9A0"/>
<path d="M126.522 30.7349C127.17 29.9476 128.576 28.3081 130.193 27.3653C131.988 26.3188 135.727 24.7733 136.485 26.1179C137.042 27.0899 135.665 27.8059 135.665 27.8059C135.665 27.8059 137.347 27.4981 137.655 28.4896C137.936 29.3968 136.841 29.8828 136.841 29.8828C136.841 29.8828 137.891 29.8828 137.995 30.7932C138.121 31.9045 135.899 31.7458 135.05 32.9834C134.862 33.2589 126.522 30.7349 126.522 30.7349Z" fill="#F7A9A0"/>
<path d="M130.983 29.4453C132.326 28.4304 133.948 27.8504 135.63 27.7832C135.672 27.7832 135.694 27.8156 135.655 27.8253C134.041 28.1799 132.475 28.7293 130.993 29.4615L130.983 29.4453Z" fill="#263238"/>
<path d="M132.092 31.2274C132.778 30.7414 134.923 29.7791 136.828 29.8439C136.871 29.8439 136.893 29.8796 136.854 29.8861C135.224 30.1573 133.629 30.6127 132.101 31.2436L132.092 31.2274Z" fill="#263238"/>
<path d="M119.99 48.0394L123.901 41.0831C123.901 41.0831 116.799 37.9015 113.144 36.9619C110.072 36.1713 108.815 38.1736 111.699 41.0345C114.43 43.7399 119.99 48.0394 119.99 48.0394Z" fill="#455A64"/>
<path d="M112.849 36.8946L110.999 40.2577C110.913 40.1538 110.832 40.0457 110.756 39.9337L112.464 36.833C112.587 36.846 112.716 36.8654 112.849 36.8946Z" fill="#37474F"/>
<path d="M114.919 37.4965L112.535 41.8316L112.256 41.5724L114.563 37.3799L114.919 37.4965Z" fill="#37474F"/>
<path d="M116.928 38.2097L114.145 43.2706L113.86 43.0211L116.578 38.0801L116.928 38.2097Z" fill="#37474F"/>
<path d="M118.908 38.9779L115.785 44.6576L115.493 44.4178L118.561 38.8418L118.908 38.9779Z" fill="#37474F"/>
<path d="M120.868 39.7775L117.44 46.0081C117.343 45.9303 117.246 45.8525 117.149 45.7683L120.525 39.6123L120.868 39.7775Z" fill="#37474F"/>
<path d="M122.815 40.607L119.106 47.3462L118.814 47.1162L122.472 40.458L122.815 40.607Z" fill="#37474F"/>
<path d="M121.847 40.9248C121.558 41.3145 121.292 41.7201 121.05 42.1398C120.784 42.5643 120.538 42.9952 120.288 43.4358C120.039 43.8765 119.109 45.6228 118.875 46.0635C118.875 46.0829 118.901 46.0959 118.914 46.0797C119.18 45.6552 120.233 43.9737 120.476 43.5492C120.719 43.1248 120.965 42.7036 121.195 42.2727C121.446 41.8443 121.67 41.4007 121.866 40.9443C121.866 40.9443 121.853 40.9151 121.847 40.9248Z" fill="#263238"/>
<path d="M112.716 41.9973C114.544 43.3581 116.468 44.9976 118.224 46.4815C118.82 46.9967 119.417 47.5118 120.029 48.0011H119.961C120.104 47.7937 120.246 47.5831 120.395 47.379C120.275 47.622 120.149 47.8585 120.023 48.0983L119.974 48.0691C117.346 46.3195 114.988 44.1811 112.729 41.9844L112.716 41.9973Z" fill="#263238"/>
<path d="M112.901 42.499C113.371 42.6308 113.798 42.882 114.142 43.228C113.895 43.2027 113.656 43.1245 113.442 42.9987C113.228 42.8729 113.043 42.7025 112.901 42.499Z" fill="#263238"/>
<path d="M121.636 114.465L118.629 119.934C118.343 120.486 117.947 120.975 117.466 121.369C116.985 121.764 116.429 122.057 115.832 122.23C115.234 122.403 114.608 122.453 113.99 122.377C113.373 122.301 112.778 122.101 112.24 121.788C111.149 121.186 110.341 120.176 109.993 118.98C109.646 117.783 109.787 116.497 110.387 115.405L115.195 106.657C115.24 106.573 115.324 106.621 115.373 106.534C115.334 106.407 115.334 106.407 115.373 106.32C116.002 105.256 117.012 104.472 118.198 104.126C119.384 103.781 120.658 103.9 121.759 104.46C127.063 107.376 133.666 105.529 136.534 100.313C139.45 95.0123 137.421 88.5323 132.117 85.6163C130.487 84.7122 128.647 84.2536 126.783 84.2866C124.92 84.3195 123.097 84.843 121.5 85.8042C120.965 86.1337 120.369 86.3532 119.748 86.45C119.127 86.5469 118.493 86.5191 117.883 86.3683C117.273 86.2175 116.699 85.9467 116.195 85.5717C115.69 85.1967 115.266 84.7251 114.945 84.1842C114.631 83.653 114.426 83.0648 114.34 82.4536C114.254 81.8425 114.29 81.2203 114.446 80.6231C114.601 80.0259 114.874 79.4654 115.247 78.9739C115.62 78.4824 116.087 78.0696 116.62 77.7593C119.636 75.9505 123.072 74.9633 126.588 74.8962C130.103 74.8292 133.575 75.6845 136.657 77.377C146.419 82.7425 150.061 95.0415 144.698 104.8C142.503 108.772 139.032 111.886 134.846 113.64C130.661 115.394 126.007 115.685 121.636 114.465ZM111.508 132.888L110.678 134.401C110.392 134.954 109.996 135.443 109.515 135.838C109.034 136.233 108.478 136.527 107.881 136.7C107.283 136.874 106.656 136.925 106.038 136.849C105.42 136.774 104.824 136.574 104.286 136.261C103.195 135.657 102.387 134.646 102.04 133.449C101.693 132.251 101.834 130.965 102.433 129.871L103.265 128.358C103.879 127.279 104.889 126.481 106.082 126.135C107.274 125.788 108.554 125.92 109.651 126.502C110.198 126.794 110.681 127.192 111.071 127.673C111.462 128.154 111.752 128.709 111.925 129.304C112.098 129.899 112.15 130.522 112.079 131.138C112.007 131.754 111.813 132.349 111.508 132.888Z" fill="#0040FE"/>
<g opacity="0.6">
<path d="M121.636 114.465L118.629 119.934C118.343 120.486 117.947 120.975 117.466 121.369C116.985 121.764 116.429 122.057 115.832 122.23C115.234 122.403 114.608 122.453 113.99 122.377C113.373 122.301 112.778 122.101 112.24 121.788C111.149 121.186 110.341 120.176 109.993 118.98C109.646 117.783 109.787 116.497 110.387 115.405L115.195 106.657C115.24 106.573 115.324 106.621 115.373 106.534C115.334 106.407 115.334 106.407 115.373 106.32C116.002 105.256 117.012 104.472 118.198 104.126C119.384 103.781 120.658 103.9 121.759 104.46C127.063 107.376 133.666 105.529 136.534 100.313C139.45 95.0123 137.421 88.5323 132.117 85.6163C130.487 84.7122 128.647 84.2536 126.783 84.2866C124.92 84.3195 123.097 84.843 121.5 85.8042C120.965 86.1337 120.369 86.3532 119.748 86.45C119.127 86.5469 118.493 86.5191 117.883 86.3683C117.273 86.2175 116.699 85.9467 116.195 85.5717C115.69 85.1967 115.266 84.7251 114.945 84.1842C114.631 83.653 114.426 83.0648 114.34 82.4536C114.254 81.8425 114.29 81.2203 114.446 80.6231C114.601 80.0259 114.874 79.4654 115.247 78.9739C115.62 78.4824 116.087 78.0696 116.62 77.7593C119.636 75.9505 123.072 74.9633 126.588 74.8962C130.103 74.8292 133.575 75.6845 136.657 77.377C146.419 82.7425 150.061 95.0415 144.698 104.8C142.503 108.772 139.032 111.886 134.846 113.64C130.661 115.394 126.007 115.685 121.636 114.465ZM111.508 132.888L110.678 134.401C110.392 134.954 109.996 135.443 109.515 135.838C109.034 136.233 108.478 136.527 107.881 136.7C107.283 136.874 106.656 136.925 106.038 136.849C105.42 136.774 104.824 136.574 104.286 136.261C103.195 135.657 102.387 134.646 102.04 133.449C101.693 132.251 101.834 130.965 102.433 129.871L103.265 128.358C103.879 127.279 104.889 126.481 106.082 126.135C107.274 125.788 108.554 125.92 109.651 126.502C110.198 126.794 110.681 127.192 111.071 127.673C111.462 128.154 111.752 128.709 111.925 129.304C112.098 129.899 112.15 130.522 112.079 131.138C112.007 131.754 111.813 132.349 111.508 132.888Z" fill="white"/>
</g>
<path d="M23.8627 89.1902L22.0029 83.611C21.8044 83.0599 21.7198 82.4743 21.7543 81.8896C21.7889 81.3049 21.9418 80.7333 22.2039 80.2095C22.466 79.6857 22.8317 79.2205 23.2789 78.8423C23.7261 78.464 24.2455 78.1805 24.8055 78.009C25.9201 77.6393 27.1357 77.7263 28.1863 78.251C29.2368 78.7756 30.0367 79.6952 30.4107 80.8084L33.3721 89.7475C33.398 89.8285 33.3105 89.8577 33.3397 89.9452C33.4563 90.0002 33.4563 90.0002 33.4855 90.0877C33.8228 91.2028 33.7207 92.4047 33.2002 93.4469C32.6797 94.4891 31.7802 95.2927 30.6861 95.6929C25.2915 97.4846 22.3561 103.232 24.1186 108.54C25.9168 113.944 31.697 116.691 37.1013 114.89C38.7684 114.342 40.262 113.365 41.4319 112.057C42.6018 110.749 43.4068 109.156 43.766 107.438C43.8816 106.857 44.1116 106.306 44.4425 105.815C44.7734 105.324 45.1987 104.904 45.6935 104.58C46.1884 104.255 46.7429 104.032 47.3247 103.923C47.9066 103.815 48.5043 103.824 49.0828 103.948C49.6508 104.07 50.189 104.304 50.6665 104.635C51.1439 104.966 51.5512 105.388 51.8647 105.877C52.1782 106.366 52.3918 106.913 52.4933 107.485C52.5947 108.057 52.5819 108.643 52.4557 109.21C51.7774 112.452 50.2616 115.459 48.0594 117.932C45.8572 120.406 43.0453 122.259 39.9039 123.307C29.9506 126.625 19.1128 121.279 15.7983 111.319C14.4547 107.262 14.52 102.869 15.9836 98.8529C17.4472 94.8368 20.2233 91.4322 23.8627 89.1902ZM17.5997 70.3982L17.0846 68.856C16.886 68.3045 16.8013 67.7185 16.8358 67.1333C16.8703 66.5482 17.0232 65.9761 17.2852 65.4518C17.5472 64.9275 17.9129 64.4617 18.3602 64.0829C18.8074 63.704 19.3269 63.4198 19.8872 63.2476C21.0026 62.8781 22.219 62.966 23.2697 63.492C24.3204 64.018 25.1197 64.9391 25.4924 66.0534L26.0075 67.5956C26.3604 68.7105 26.2651 69.919 25.7419 70.9648C25.2187 72.0106 24.3087 72.8115 23.2049 73.1976C22.6537 73.3893 22.0696 73.4688 21.4872 73.4314C20.9048 73.3941 20.3357 73.2406 19.8134 72.9801C19.2912 72.7196 18.8263 72.3572 18.4461 71.9144C18.0659 71.4716 17.7782 70.9572 17.5997 70.4015V70.3982Z" fill="#0040FE"/>
<g opacity="0.6">
<path d="M23.8627 89.1902L22.0029 83.611C21.8044 83.0599 21.7198 82.4743 21.7543 81.8896C21.7889 81.3049 21.9418 80.7333 22.2039 80.2095C22.466 79.6857 22.8317 79.2205 23.2789 78.8423C23.7261 78.464 24.2455 78.1805 24.8055 78.009C25.9201 77.6393 27.1357 77.7263 28.1863 78.251C29.2368 78.7756 30.0367 79.6952 30.4107 80.8084L33.3721 89.7475C33.398 89.8285 33.3105 89.8577 33.3397 89.9452C33.4563 90.0002 33.4563 90.0002 33.4855 90.0877C33.8228 91.2028 33.7207 92.4047 33.2002 93.4469C32.6797 94.4891 31.7802 95.2927 30.6861 95.6929C25.2915 97.4846 22.3561 103.232 24.1186 108.54C25.9168 113.944 31.697 116.691 37.1013 114.89C38.7684 114.342 40.262 113.365 41.4319 112.057C42.6018 110.749 43.4068 109.156 43.766 107.438C43.8816 106.857 44.1116 106.306 44.4425 105.815C44.7734 105.324 45.1987 104.904 45.6935 104.58C46.1884 104.255 46.7429 104.032 47.3247 103.923C47.9066 103.815 48.5043 103.824 49.0828 103.948C49.6508 104.07 50.189 104.304 50.6665 104.635C51.1439 104.966 51.5512 105.388 51.8647 105.877C52.1782 106.366 52.3918 106.913 52.4933 107.485C52.5947 108.057 52.5819 108.643 52.4557 109.21C51.7774 112.452 50.2616 115.459 48.0594 117.932C45.8572 120.406 43.0453 122.259 39.9039 123.307C29.9506 126.625 19.1128 121.279 15.7983 111.319C14.4547 107.262 14.52 102.869 15.9836 98.8529C17.4472 94.8368 20.2233 91.4322 23.8627 89.1902ZM17.5997 70.3982L17.0846 68.856C16.886 68.3045 16.8013 67.7185 16.8358 67.1333C16.8703 66.5482 17.0232 65.9761 17.2852 65.4518C17.5472 64.9275 17.9129 64.4617 18.3602 64.0829C18.8074 63.704 19.3269 63.4198 19.8872 63.2476C21.0026 62.8781 22.219 62.966 23.2697 63.492C24.3204 64.018 25.1197 64.9391 25.4924 66.0534L26.0075 67.5956C26.3604 68.7105 26.2651 69.919 25.7419 70.9648C25.2187 72.0106 24.3087 72.8115 23.2049 73.1976C22.6537 73.3893 22.0696 73.4688 21.4872 73.4314C20.9048 73.3941 20.3357 73.2406 19.8134 72.9801C19.2912 72.7196 18.8263 72.3572 18.4461 71.9144C18.0659 71.4716 17.7782 70.9572 17.5997 70.4015V70.3982Z" fill="white"/>
</g>
<path d="M87.9467 92.5471V104.61C87.9467 109.794 84.0587 113.682 78.8552 113.682C76.4484 113.677 74.141 112.721 72.437 111.021C70.733 109.321 69.7708 107.016 69.7605 104.61V85.3121C69.7605 85.1307 69.9582 85.1307 69.9582 84.9428C69.7605 84.7613 69.7605 84.7613 69.7605 84.5734C69.7605 79.7458 74.0373 75.4787 78.8552 75.4787C90.5451 75.4787 100.003 66.2059 100.003 54.7039C100.003 43.0172 90.5451 33.9257 78.8552 33.9257C75.2508 33.9128 71.7064 34.8489 68.5784 36.6398C65.4503 38.4308 62.8488 41.0135 61.0352 44.1285C60.4338 45.1837 59.6282 46.1085 58.6656 46.8491C57.7029 47.5896 56.6024 48.131 55.4282 48.4416C54.2541 48.7523 53.0298 48.826 51.8269 48.6584C50.624 48.4909 49.4664 48.0854 48.4219 47.4657C47.3967 46.8594 46.5015 46.0566 45.7876 45.1033C45.0737 44.1499 44.5552 43.0649 44.2619 41.9106C43.9687 40.7562 43.9064 39.5553 44.0788 38.3768C44.2511 37.1984 44.6546 36.0656 45.2661 35.0435C48.6921 29.1738 53.5956 24.3037 59.4887 20.918C65.3818 17.5324 72.0588 15.7492 78.8552 15.7461C100.379 15.7461 118.007 33.1838 118.007 54.7039C118.007 73.0714 105.196 88.4711 87.9467 92.5471ZM87.9467 133.173V136.511C87.9467 141.695 84.0587 145.605 78.8552 145.605C76.4447 145.6 74.1344 144.64 72.43 142.936C70.7255 141.231 69.7657 138.921 69.7605 136.511V133.164C69.7605 128.158 74.0373 124.092 78.8552 124.092C80.0514 124.077 81.2385 124.302 82.3467 124.753C83.4549 125.203 84.4619 125.871 85.3088 126.716C86.1556 127.561 86.8251 128.566 87.2781 129.674C87.7311 130.781 87.9584 131.967 87.9467 133.164V133.173Z" fill="#0040FE"/>
<path opacity="0.6" d="M82.2961 19.7382C97.8676 17.778 111.906 33.6508 114.44 47.9554C114.724 49.5776 114.873 51.2204 114.887 52.8672C114.868 53.4148 114.855 53.9591 114.819 54.4872C111.041 39.1393 98.6549 22.4922 82.2961 19.7382Z" fill="white"/>
<path d="M60.6885 53.9723C60.6938 54.1355 60.6569 54.2972 60.5814 54.4419C60.5059 54.5867 60.3944 54.7095 60.2576 54.7985C60.0352 54.9507 59.8025 55.0872 59.561 55.2068C59.629 54.2801 59.5902 53.3178 59.561 52.4009C59.5383 51.322 59.4508 50.2658 59.3407 49.1998H59.318C59.3601 50.282 59.3666 51.3674 59.3828 52.4398C59.3828 53.3859 59.3407 54.3417 59.3601 55.291C59.1139 55.4044 58.8612 55.5048 58.6084 55.5956C58.6257 55.2651 58.6387 54.9346 58.6473 54.6041C58.6797 53.6094 58.6473 52.6245 58.6182 51.633C58.6182 51.6071 58.589 51.6071 58.589 51.633C58.589 52.605 58.5177 53.577 58.4788 54.549C58.4626 54.9216 58.4432 55.2942 58.4238 55.6668C58.2488 55.7252 58.0738 55.777 57.9021 55.8256C57.7887 55.8612 57.6753 55.8904 57.5587 55.9196C57.5587 55.2716 57.5587 54.6236 57.5587 53.9756C57.5587 52.942 57.4971 51.9117 57.4809 50.8781C57.4809 50.8751 57.4803 50.8722 57.4792 50.8694C57.4781 50.8667 57.4764 50.8642 57.4743 50.8621C57.4722 50.86 57.4697 50.8583 57.4669 50.8572C57.4642 50.856 57.4612 50.8554 57.4582 50.8554C57.4553 50.8554 57.4523 50.856 57.4496 50.8572C57.4468 50.8583 57.4443 50.86 57.4422 50.8621C57.4401 50.8642 57.4384 50.8667 57.4373 50.8694C57.4362 50.8722 57.4356 50.8751 57.4356 50.8781C57.4356 51.9052 57.3967 52.9388 57.3837 53.9691C57.3837 54.6333 57.3448 55.3104 57.3416 55.9811C55.8108 56.3149 54.2299 56.3501 52.6857 56.0848C51.7889 55.933 50.9042 55.7164 50.0386 55.4368C49.828 55.3688 49.2934 55.1841 48.7653 54.9897C48.7653 54.6657 48.7653 54.3644 48.7653 54.063C48.7848 53.3762 48.7653 52.6796 48.801 51.9959C48.801 51.9732 48.7783 51.9732 48.7783 51.9959C48.7232 52.686 48.6325 53.3697 48.5936 54.0598C48.5936 54.3384 48.5612 54.6236 48.5482 54.9152L48.0169 54.711C48.1238 53.415 48.0946 52.0899 48.1303 50.7971C48.1303 50.7647 48.0946 50.7647 48.0914 50.7971C48.0039 52.0672 47.8452 53.3535 47.816 54.6333C47.6949 54.5894 47.5787 54.5329 47.4693 54.4648C47.2134 54.2186 47.5633 49.0864 47.6184 47.8908C47.7253 45.6552 48.302 41.129 48.8528 38.9776C49.3258 37.134 50.3011 34.4999 54.8889 34.5809C58.2553 34.6392 59.8234 38.1449 60.0988 40.1991C60.2641 41.2553 60.6982 53.3859 60.6885 53.9723Z" fill="#263238"/>
<path d="M50.868 52.5794C49.6141 60.1901 49.2026 68.0471 50.045 69.5602C51.341 71.9092 60.8861 77.5922 64.1649 78.7813C65.2374 79.1701 68.4515 72.0907 67.8099 71.0506C67.1684 70.0106 56.7 64.6937 56.1946 64.1527C55.9289 63.8546 54.9634 57.407 54.0497 53.0038C53.1976 48.8987 51.2503 50.2693 50.868 52.5794Z" fill="#D3766A"/>
<path d="M60.4747 77.4368L64.6576 68.5398C64.6576 68.5398 57.3481 64.344 56.5057 63.7576C56.1461 63.5081 54.9116 55.5312 54.2086 52.0579C53.742 49.7899 51.7494 48.468 50.5279 52.7999C49.8151 55.34 48.2016 67.8011 49.6628 70.0399C50.826 71.8187 60.4747 77.4368 60.4747 77.4368Z" fill="#0040FE"/>
<path d="M58.4627 75.6704C58.6636 74.9868 59.9369 72.3429 60.2641 71.6885C60.5914 71.034 61.9781 68.4485 62.3151 67.7778C62.3345 67.7421 62.3928 67.7583 62.3734 67.794C62.0494 68.4647 60.8603 71.1603 60.5428 71.8181C60.2253 72.4758 58.9228 75.1002 58.4983 75.6866C58.4973 75.689 58.4958 75.6911 58.4939 75.6928C58.492 75.6946 58.4898 75.6959 58.4874 75.6968C58.485 75.6977 58.4824 75.6982 58.4798 75.6981C58.4773 75.698 58.4748 75.6974 58.4724 75.6963C58.4701 75.6953 58.468 75.6938 58.4662 75.6919C58.4645 75.69 58.4631 75.6878 58.4622 75.6854C58.4613 75.683 58.4609 75.6804 58.4609 75.6779C58.461 75.6753 58.4616 75.6728 58.4627 75.6704Z" fill="#263238"/>
<path opacity="0.1" d="M50.7546 52.0929C50.7189 52.1966 50.6801 52.3068 50.6444 52.4169C50.6088 52.5271 50.5667 52.6664 50.531 52.7928C50.4079 53.2302 50.2556 53.9592 50.1001 54.8793C50.0709 55.0478 50.0418 55.2033 50.0159 55.401C49.9964 55.5079 49.9802 55.6213 49.964 55.725C49.9251 55.9647 49.8895 56.211 49.8539 56.4637L49.8344 56.5998C49.7955 56.8752 49.7534 57.1635 49.7178 57.4551C49.6886 57.669 49.6595 57.8828 49.6335 58.1031C49.6076 58.3235 49.5785 58.5373 49.5558 58.7511C49.5558 58.8613 49.5299 58.9715 49.5169 59.0751C49.3776 60.3128 49.2577 61.6153 49.1767 62.8757C49.154 63.2159 49.1346 63.5561 49.1216 63.893C49.1216 64.1166 49.1022 64.3401 49.0957 64.541C49.0892 64.7419 49.0795 64.9752 49.0763 65.189C49.0341 67.4117 49.1864 69.2455 49.6627 69.981C50.4468 71.1863 55.1253 74.1476 58.064 75.9329L53.2267 50.1425C53.1872 50.1112 53.1461 50.082 53.1036 50.055C52.9779 49.9705 52.8343 49.9166 52.6841 49.8974C52.5339 49.8783 52.3813 49.8945 52.2385 49.9448C52.1007 49.9966 51.9726 50.0711 51.8594 50.1651C51.7699 50.2417 51.6865 50.3251 51.6099 50.4146C51.5187 50.5162 51.4353 50.6245 51.3605 50.7386C51.1043 51.1638 50.9008 51.6186 50.7546 52.0929Z" fill="#020100"/>
<path d="M81.324 151.525C80.4913 151.797 56.7 151.587 55.7831 151.007C55.4396 150.786 55.2679 147.32 55.1804 143.121C55.161 142.217 53.3628 127.607 53.3628 127.607L69.2777 127.701L70.5413 143.208C70.5413 143.208 79.6133 147.365 80.5399 148.11C81.4666 148.855 82.1729 151.256 81.324 151.525Z" fill="#D3766A"/>
<path d="M81.3239 151.526C80.4912 151.798 56.6999 151.587 55.783 151.007C55.5238 150.839 55.3618 148.81 55.2549 146.005C58.3361 146.711 75.6442 148.133 77.6336 147.894C79.5549 147.663 75.0999 145.373 74.2964 144.978C76.9078 146.212 80.0085 147.706 80.5301 148.127C81.4568 148.856 82.1728 151.257 81.3239 151.526Z" fill="#263238"/>
<path d="M36.8 63.2197C36.8 63.2197 32.6366 69.2623 34.9273 75.8168C38.8347 87.0305 48.7621 99.647 49.0666 101.089C49.7859 104.491 53.6026 139.356 53.6026 139.356L71.387 139.25C71.387 139.25 68.471 109.675 65.4416 99.9095C63.7924 94.5764 54.377 79.9576 50.314 72.8231C49.9479 72.1751 50.8065 69.4308 50.8065 69.4308L36.8 63.2197Z" fill="#37474F"/>
<path d="M69.6178 136.136C66.8574 136.081 58.4982 135.851 54.8175 136.136C54.7884 136.136 54.7884 136.185 54.8175 136.188C56.0811 136.385 66.8574 136.253 69.6178 136.188C69.6231 136.194 69.63 136.198 69.6377 136.2C69.6453 136.202 69.6533 136.201 69.6607 136.198C69.6681 136.195 69.6744 136.19 69.6788 136.184C69.6833 136.177 69.6857 136.17 69.6857 136.162C69.6857 136.154 69.6833 136.146 69.6788 136.14C69.6744 136.133 69.6681 136.128 69.6607 136.126C69.6533 136.123 69.6453 136.122 69.6377 136.124C69.63 136.126 69.6231 136.13 69.6178 136.136Z" fill="#263238"/>
<path d="M33.8353 71.4686C35.0211 73.3834 36.2782 75.2594 37.4932 77.1548C38.7082 79.0502 39.9168 80.9553 41.1123 82.8669C43.4991 86.6901 45.8298 90.5446 48.1042 94.4305C49.2084 96.2229 50.1496 98.1108 50.9166 100.071C51.6156 102.038 52.134 104.063 52.4653 106.124C52.8152 108.194 53.0388 110.281 53.2461 112.367C53.4621 114.588 53.6781 116.808 53.8941 119.029L55.2452 132.662C55.3003 133.22 55.3554 133.777 55.404 134.334C55.404 134.419 55.2646 134.432 55.2549 134.351C54.7462 129.834 54.3315 125.304 53.8747 120.781C53.6457 118.531 53.4168 116.28 53.1878 114.029C52.9772 111.936 52.7763 109.84 52.4782 107.757C52.2027 105.704 51.7749 103.674 51.1984 101.685C50.556 99.624 49.6866 97.6408 48.6064 95.7718C46.4259 91.9 44.1126 88.093 41.8024 84.2958C39.4923 80.4985 37.1174 76.6493 34.6744 72.8845C34.3731 72.4211 34.0686 71.9578 33.7543 71.501C33.751 71.4653 33.8126 71.4329 33.8353 71.4686Z" fill="#263238"/>
<path d="M37.989 151.632C37.111 151.567 14.5897 142.119 13.9709 141.241C13.944 141.19 13.9327 141.131 13.9385 141.073C13.9385 140.295 24.7212 120.745 24.7212 120.745L39.4438 126.807L31.104 139.881C31.104 139.881 37.9598 147.145 38.5333 148.178C39.1068 149.212 38.8606 151.703 37.989 151.632Z" fill="#D3766A"/>
<path d="M38.5269 148.179C39.0971 149.212 38.8509 151.704 37.989 151.642C37.1272 151.581 14.58 142.127 13.9677 141.265C13.943 141.212 13.933 141.154 13.9385 141.096C13.9385 140.84 15.0952 138.585 16.6471 135.663C19.8385 129.636 24.7212 120.759 24.7212 120.759L39.4438 126.821L31.104 139.881C31.104 139.881 32.9962 141.887 34.8721 143.938C36.5731 145.801 38.2547 147.686 38.5269 148.179Z" fill="#D3766A"/>
<path d="M37.989 151.632C37.1142 151.567 14.5897 142.116 13.9677 141.242C13.943 141.189 13.933 141.131 13.9385 141.073C13.9385 140.817 15.0952 138.562 16.6471 135.64C20.5351 139.729 35.8765 147.184 36.3787 146.98C36.8809 146.776 35.0017 144.125 34.8721 143.937C36.5731 145.794 38.2547 147.679 38.5269 148.172C39.0971 149.212 38.88 151.704 37.989 151.632Z" fill="#263238"/>
<path d="M33.2684 137.837L17.9983 130.599C17.9983 130.599 37.6943 101.008 37.8757 98.7623C38.0345 96.773 29.2281 79.3418 28.9333 74.2874C28.6093 68.8345 31.292 64.6516 34.208 62.0693L50.8162 69.4403C50.8162 69.4403 49.3647 72.4049 46.5038 73.9763C46.5038 73.9763 55.0185 94.1065 54.445 100.256C53.8716 106.405 33.2684 137.837 33.2684 137.837Z" fill="#37474F"/>
<path d="M34.1173 134.334C31.9984 133.252 32.6237 133.527 30.4918 132.471C29.4517 131.956 22.5959 128.567 21.5299 128.259C21.5072 128.259 21.4878 128.294 21.5072 128.307C22.4015 128.955 29.3189 132.215 30.3719 132.711C32.5232 133.718 31.9174 133.404 34.0849 134.389C34.1238 134.418 34.1562 134.353 34.1173 134.334Z" fill="#263238"/>
<path d="M48.9791 74.1385C47.1568 74.2692 45.3489 74.5542 43.5748 74.9906C43.5675 74.9919 43.5606 74.9945 43.5544 74.9985C43.5482 75.0024 43.5429 75.0076 43.5387 75.0136C43.5345 75.0196 43.5315 75.0264 43.5299 75.0336C43.5283 75.0407 43.5281 75.0481 43.5294 75.0554C43.5307 75.0626 43.5334 75.0695 43.5373 75.0757C43.5413 75.0819 43.5464 75.0873 43.5524 75.0915C43.5584 75.0957 43.5652 75.0987 43.5724 75.1003C43.5796 75.1019 43.587 75.102 43.5942 75.1007C45.3989 74.8707 47.2263 74.6763 49.0147 74.3491C49.0416 74.3432 49.0651 74.3272 49.0805 74.3044C49.0959 74.2817 49.1019 74.2539 49.0973 74.2268C49.0927 74.1997 49.0779 74.1754 49.0559 74.159C49.0339 74.1425 49.0064 74.1352 48.9791 74.1385Z" fill="#263238"/>
<path d="M47.0868 73.1271C46.8756 73.3921 46.6829 73.6714 46.5101 73.963C46.3505 74.1793 46.235 74.4248 46.1699 74.6855C46.1699 74.7374 46.2282 74.7601 46.2639 74.7341C46.4756 74.5472 46.657 74.3286 46.8017 74.0861C46.9864 73.8302 47.1808 73.5774 47.3622 73.3182C47.4821 73.1433 47.2164 72.9651 47.0868 73.1271Z" fill="#263238"/>
<path d="M50.6671 68.3158C50.6671 68.2866 50.6185 68.2607 50.6056 68.2899C50.2685 69.1936 49.8779 70.0764 49.4359 70.9337C49.235 71.3355 47.9747 73.4933 47.1679 73.0203C47.0318 72.9425 47.0027 72.7967 47.048 72.6088C47.1412 72.369 47.2689 72.1442 47.4271 71.9413C47.7025 71.4942 47.9617 71.0374 48.1918 70.5708C48.6258 69.7022 48.9522 68.7839 49.1638 67.8363C49.1638 67.8071 49.1184 67.7909 49.1054 67.8201C48.6612 69.089 48.1038 70.3154 47.4401 71.4845C47.1161 72.0418 46.4098 72.8161 47.1161 73.1725C47.8224 73.5289 48.9046 72.2005 49.154 71.8182C49.8357 70.7356 50.3461 69.5542 50.6671 68.3158Z" fill="#263238"/>
<path d="M46.7629 74.6303C47.3525 75.9263 47.8709 77.2223 48.425 78.5021C48.979 79.7819 49.4683 81.039 49.9543 82.3188C50.9263 84.9108 51.8237 87.5384 52.5916 90.1985C52.9718 91.5139 53.3195 92.8391 53.6349 94.1739C53.9778 95.5078 54.2247 96.8645 54.3736 98.2337C54.5036 99.5985 54.3705 100.976 53.9816 102.29C53.5766 103.635 51.3021 108.122 50.68 109.379C50.2977 110.147 50.1713 110.027 50.356 109.655C50.8809 108.556 54.0043 101.905 53.9427 99.0923C53.8781 97.7374 53.6828 96.392 53.3595 95.0747C53.0647 93.7236 52.7277 92.3855 52.3583 91.0538C51.6326 88.4294 50.761 85.8698 49.8668 83.2778C49.3646 81.8393 48.8235 80.4137 48.3148 78.9751C47.8061 77.5365 47.2683 76.2243 46.6948 74.6432C46.6952 74.6352 46.6983 74.6276 46.7035 74.6216C46.7088 74.6156 46.7159 74.6115 46.7238 74.61C46.7316 74.6085 46.7397 74.6097 46.7468 74.6134C46.7539 74.617 46.7596 74.623 46.7629 74.6303Z" fill="#263238"/>
<path d="M34.2404 70.2245C34.5385 70.1175 34.9499 70.3055 35.2513 70.3605C35.638 70.4291 36.0286 70.4735 36.4209 70.4934C36.8099 70.5091 37.1994 70.5004 37.5873 70.4675C37.9765 70.4597 38.3588 70.3633 38.7051 70.1856C39.2728 69.7822 39.7606 69.2768 40.1437 68.6952C40.6047 68.0993 40.9859 67.4458 41.2777 66.7512C41.2777 66.7091 41.3522 66.7512 41.3392 66.7803C41.2096 67.1756 41.1124 67.5741 40.9472 67.9629C40.7892 68.3248 40.6029 68.6737 40.3899 69.0062C39.9979 69.6283 39.554 70.3022 38.893 70.6619C38.2321 71.0215 37.3151 71.0085 36.5505 70.9567C36.1079 70.9257 35.6682 70.8618 35.2351 70.7655C34.9111 70.6943 34.3927 70.6392 34.1983 70.3605C34.1916 70.349 34.1874 70.3361 34.1859 70.3228C34.1844 70.3095 34.1857 70.2961 34.1896 70.2833C34.1936 70.2706 34.2001 70.2587 34.2089 70.2486C34.2176 70.2385 34.2283 70.2303 34.2404 70.2245Z" fill="#263238"/>
<path d="M22.5634 127.847C25.3368 123.763 28.0606 119.644 30.7346 115.49C33.4087 111.336 36.0461 107.147 38.6467 102.922C39.2688 101.911 39.9848 100.907 40.3898 99.7855C40.8337 98.5673 40.6069 97.3815 40.2343 96.1794C39.5359 93.9823 38.7138 91.8264 37.7719 89.7221C36.842 87.6031 35.8279 85.5101 34.8559 83.43C33.8839 81.3499 32.8342 79.2763 32.1019 77.1023C31.3988 75.0255 31.1494 72.8741 31.7326 70.7357C32.3158 68.5973 33.534 66.7181 34.8073 64.9491L35.8214 63.5526C35.8474 63.517 35.8992 63.5526 35.8733 63.598C34.4736 65.4415 33.1063 67.392 32.2704 69.5661C31.8441 70.6381 31.5989 71.7735 31.5446 72.9259C31.5242 74.0952 31.6916 75.2603 32.0404 76.3765C32.6884 78.5506 33.7154 80.6145 34.6777 82.6621C35.64 84.7098 36.6671 86.8353 37.6132 88.9445C38.5812 91.0582 39.4377 93.2211 40.1792 95.4245C40.5032 96.3965 40.8596 97.4365 40.8272 98.4895C40.7884 99.6397 40.2246 100.667 39.6446 101.632C37.1142 105.825 34.493 109.962 31.8395 114.077C29.1859 118.192 26.4611 122.307 23.7038 126.389L22.6573 127.928C22.612 127.98 22.5212 127.912 22.5634 127.847Z" fill="#263238"/>
<path d="M50.8162 69.4397L52.2159 62.3765C52.2159 62.3765 54.6913 61.5017 54.6621 58.2909C54.6459 56.8134 53.9493 51.0365 52.2807 48.7555C50.719 46.6139 48.208 47.1355 46.6982 47.8807C43.7401 49.3355 39.5378 53.4244 34.208 62.0687L50.8162 69.4397Z" fill="#0040FE"/>
<path d="M48.1722 59.9599C48.8601 60.2286 49.519 60.5662 50.1389 60.9676C50.4467 61.1782 50.7448 61.405 51.0396 61.6447C51.1854 61.7646 51.3377 61.878 51.4867 61.9882C51.638 62.1075 51.8076 62.2016 51.9889 62.2668C51.9889 62.2668 51.9889 62.3057 51.9889 62.3024C51.8146 62.2694 51.6434 62.2217 51.477 62.1599C51.3159 62.0893 51.1618 62.0036 51.0169 61.9039C50.6929 61.6966 50.3949 61.4665 50.0806 61.2559C49.4488 60.8282 48.817 60.4006 48.1528 60.0409C48.1139 60.0247 48.1431 59.9405 48.1722 59.9599Z" fill="#263238"/>
<path d="M46.2251 60.4171C46.8226 60.4764 47.4143 60.5847 47.9941 60.7411C48.2828 60.8208 48.5663 60.9182 48.843 61.0327C48.9791 61.0845 49.1119 61.1429 49.2415 61.2012C49.3711 61.2595 49.5234 61.36 49.6692 61.4215C49.6692 61.4215 49.6692 61.4636 49.6692 61.4571C49.5299 61.4053 49.3776 61.3859 49.235 61.347L48.8074 61.2206C48.519 61.1396 48.2306 61.0619 47.9423 60.9744C47.3688 60.8027 46.7953 60.6504 46.2154 60.4949C46.1765 60.4787 46.1927 60.4139 46.2251 60.4171Z" fill="#263238"/>
<path d="M44.5955 49.7511C40.2279 54.3421 33.9326 62.5912 34.383 64.5514C35.517 69.4567 39.7257 75.3989 41.835 77.5503C43.0727 78.8041 50.016 72.5995 48.963 71.4299C47.3138 69.5831 43.2703 63.6539 42.807 62.8925C42.5543 62.4778 45.6841 56.1662 47.1259 51.9607C48.7135 47.3891 46.7241 47.5155 44.5955 49.7511Z" fill="#D3766A"/>
<path d="M51.5159 76.7199C51.3377 76.14 51.6423 76.0428 52.5268 76.6616C53.4113 77.2805 56.3954 80.4686 57.4192 79.3346C58.4431 78.2006 54.1792 73.7586 52.6208 72.8546C51.0623 71.9507 48.2371 71.0078 48.2371 71.0078C48.8851 72.0284 50.2426 74.682 51.5159 76.7199Z" fill="#D3766A"/>
<path d="M49.2194 81.1522L51.2629 83.3223L67.3355 68.1868L65.292 66.0168L49.2194 81.1522Z" fill="#C7C7C7"/>
<path d="M43.0142 85.9482L46.1051 89.2303L54.9503 80.9003L51.8594 77.6182L43.0142 85.9482Z" fill="#263238"/>
<path d="M58.9065 75.1162C59.1042 73.9498 60.3645 74.8505 60.3645 74.8505C60.3645 74.8505 58.8612 73.1171 59.5319 71.9928C60.2026 70.8686 61.6638 72.0512 61.7707 72.1322C61.6929 72.0382 60.3516 70.4117 61.1227 69.349C61.8938 68.2863 63.2384 69.6503 63.3227 69.741C63.2741 69.6309 62.6747 68.1599 63.4588 67.4892C64.8034 66.339 66.8607 70.4052 68.2151 70.8686L70.4377 69.3944C70.0992 69.991 69.9416 70.6732 69.9841 71.3578C70.0133 72.3298 70.0392 73.007 69.7735 73.5675C69.6631 73.8238 69.4729 74.0376 69.2312 74.1771C68.9896 74.3166 68.7093 74.3744 68.4322 74.3418C68.4322 74.3418 69.0802 75.4143 68.4872 76.2858C68.1632 76.7232 67.1912 76.6098 67.1912 76.6098C67.1912 76.6098 67.674 77.4911 67.1005 78.2298C66.6404 78.813 65.7365 78.6219 65.7365 78.6219C65.7365 78.6219 65.8078 79.6846 65.1468 80.1252C63.8508 81 58.4853 77.6142 58.9065 75.1162Z" fill="#D3766A"/>
<path d="M68.7949 70.6096L70.4149 69.4302L70.632 69.3362C73.0296 68.4388 75.8549 70.1106 74.3936 71.2252C73.2823 72.0708 71.05 71.2608 70.0391 72.2944L68.7949 70.6096Z" fill="#AD6359"/>
<path d="M65.6231 78.5965C65.6393 78.5965 65.6231 78.6353 65.6231 78.6289C63.504 77.9249 61.6496 76.5925 60.3062 74.8089C60.2641 74.7506 60.3419 74.6599 60.3969 74.7117C61.9403 76.2545 63.7009 77.5633 65.6231 78.5965Z" fill="#263238"/>
<path d="M67.2429 76.6325C67.2656 76.6325 67.2429 76.6811 67.2234 76.6746C65.1272 75.9553 62.8883 74.3418 61.6798 72.1386C61.6377 72.0641 61.6798 71.9539 61.7316 72.0381C62.6453 73.4443 65.422 75.6896 67.2429 76.6325Z" fill="#263238"/>
<path d="M63.3064 69.5599C64.5441 71.6238 66.3196 73.0818 68.3608 74.3162C68.3867 74.3162 68.3608 74.368 68.3349 74.3616C67.1717 74.0376 65.9567 73.1044 65.0689 72.3074C64.232 71.5811 63.5997 70.6484 63.2351 69.602C63.2189 69.5599 63.2805 69.5145 63.3064 69.5599Z" fill="#263238"/>
<g opacity="0.4">
<path d="M63.1346 51.9542C63.7772 48.2396 65.6881 44.863 68.5417 42.3996C71.3952 39.9363 75.0147 38.5389 78.7832 38.4454C82.5517 38.352 86.236 39.5684 89.2081 41.8873C92.1801 44.2062 94.256 47.4841 95.0819 51.1622C95.9077 54.8403 95.4325 58.691 93.737 62.0579C92.0416 65.4248 89.231 68.0995 85.7843 69.6262C82.3376 71.1528 78.4681 71.4369 74.8354 70.4299C71.2027 69.423 68.0316 67.1874 65.8627 64.1042C63.3809 60.5749 62.3999 56.2056 63.1346 51.9542Z" fill="white"/>
</g>
<path d="M60.4293 51.484C61.0746 47.7775 62.8045 44.3457 65.4003 41.6224C67.996 38.8991 71.341 37.0067 75.0122 36.1844C78.6835 35.3622 82.5161 35.6471 86.0255 37.0031C89.5348 38.3591 92.5632 40.7253 94.7278 43.8024C96.8924 46.8796 98.0958 50.5295 98.186 54.2906C98.2762 58.0517 97.2491 61.7551 95.2345 64.9325C93.22 68.1099 90.3084 70.6185 86.8681 72.1412C83.4278 73.6638 79.6133 74.1321 75.9068 73.4868C70.9394 72.6159 66.5203 69.8103 63.6188 65.6855C60.7173 61.5607 59.5702 56.4534 60.4293 51.484ZM62.5774 51.8566C62.0043 55.1397 62.4178 58.519 63.7656 61.567C65.1133 64.6151 67.3348 67.195 70.149 68.9803C72.9632 70.7657 76.2437 71.6763 79.5755 71.597C82.9073 71.5176 86.1407 70.452 88.8668 68.5347C91.5928 66.6174 93.689 63.9348 94.8901 60.826C96.0913 57.7173 96.3435 54.3221 95.6148 51.07C94.8861 47.8179 93.2093 44.855 90.7964 42.556C88.3836 40.257 85.3431 38.7253 82.0596 38.1546C77.6593 37.3898 73.1354 38.4035 69.4822 40.9728C65.829 43.5421 63.3455 47.4569 62.5774 51.8566Z" fill="#37474F"/>
<path d="M83.7022 71.5592C85.6652 71.0202 87.5193 70.143 89.181 68.9672C92.7057 66.4616 95.164 62.7267 96.0715 58.4985C96.9791 54.2703 96.27 49.8556 94.084 46.1243C91.8981 42.3929 88.3938 39.6157 84.2618 38.3399C80.1298 37.0641 75.6698 37.3822 71.7607 39.2315C67.8517 41.0809 64.777 44.3274 63.1428 48.3312C61.5086 52.335 61.4332 56.8057 62.9317 60.8622C64.4301 64.9188 67.3937 68.267 71.2382 70.247C75.0828 72.227 79.5296 72.6951 83.7022 71.5592ZM76.3766 70.7816C72.6609 70.142 69.2821 68.2337 66.8159 65.3819C64.3497 62.5301 62.9488 58.9113 62.852 55.1422C62.7552 51.3732 63.9684 47.6873 66.2849 44.7126C68.6014 41.7379 71.8778 39.6586 75.5557 38.8291C79.2336 37.9996 83.0853 38.4712 86.4544 40.1636C89.8235 41.8559 92.5015 44.6643 94.0319 48.11C95.5623 51.5556 95.8504 55.4254 94.8471 59.0598C93.8438 62.6941 91.6112 65.868 88.5298 68.0406C85.0018 70.5281 80.6308 71.5139 76.3766 70.7816ZM83.7022 71.5592C85.6652 71.0202 87.5193 70.143 89.181 68.9672C92.7057 66.4616 95.164 62.7267 96.0715 58.4985C96.9791 54.2703 96.27 49.8556 94.084 46.1243C91.8981 42.3929 88.3938 39.6157 84.2618 38.3399C80.1298 37.0641 75.6698 37.3822 71.7607 39.2315C67.8517 41.0809 64.777 44.3274 63.1428 48.3312C61.5086 52.335 61.4332 56.8057 62.9317 60.8622C64.4301 64.9188 67.3937 68.267 71.2382 70.247C75.0828 72.227 79.5296 72.6951 83.7022 71.5592ZM76.3766 70.7816C72.6609 70.142 69.2821 68.2337 66.8159 65.3819C64.3497 62.5301 62.9488 58.9113 62.852 55.1422C62.7552 51.3732 63.9684 47.6873 66.2849 44.7126C68.6014 41.7379 71.8778 39.6586 75.5557 38.8291C79.2336 37.9996 83.0853 38.4712 86.4544 40.1636C89.8235 41.8559 92.5015 44.6643 94.0319 48.11C95.5623 51.5556 95.8504 55.4254 94.8471 59.0598C93.8438 62.6941 91.6112 65.868 88.5298 68.0406C85.0018 70.5281 80.6308 71.5139 76.3766 70.7816ZM84.2692 73.6652C88.9307 72.4126 92.9657 69.483 95.6 65.4384C98.2344 61.3938 99.2828 56.519 98.544 51.749C97.8052 46.979 95.3313 42.6497 91.5968 39.5915C87.8623 36.5333 83.1302 34.9616 78.3082 35.1779C73.4861 35.3941 68.9137 37.3831 65.4679 40.7633C62.0222 44.1434 59.9457 48.6768 59.6369 53.4938C59.328 58.3108 60.8085 63.0722 63.7943 66.8648C66.7801 70.6573 71.0611 73.214 75.816 74.0443C78.6278 74.5349 81.5127 74.4055 84.2692 73.6652ZM76.004 72.9297C71.5214 72.1449 67.4864 69.7327 64.6731 66.1557C61.8597 62.5788 60.466 58.0891 60.7594 53.5478C61.0528 49.0065 63.0126 44.7334 66.2628 41.5483C69.5131 38.3631 73.8249 36.4901 78.3712 36.2886C82.9175 36.087 87.3781 37.5712 90.8974 40.4563C94.4167 43.3414 96.7469 47.4243 97.441 51.9218C98.135 56.4193 97.1441 61.0148 94.6582 64.8266C92.1724 68.6384 88.3667 71.3982 83.9711 72.5766C81.3734 73.2771 78.6534 73.3977 76.004 72.9297ZM89.181 68.9802C92.7057 66.4746 95.164 62.7397 96.0715 58.5115C96.9791 54.2833 96.27 49.8685 94.084 46.1372C91.8981 42.4059 88.3938 39.6287 84.2618 38.3528C80.1298 37.077 75.6698 37.3951 71.7607 39.2445C67.8517 41.0938 64.777 44.3403 63.1428 48.3441C61.5086 52.3479 61.4332 56.8186 62.9317 60.8752C64.4301 64.9318 67.3937 68.28 71.2382 70.2599C75.0828 72.2399 79.5296 72.7081 83.7022 71.5722C85.6652 71.0331 87.5193 70.156 89.181 68.9802ZM76.3766 70.7816C72.6609 70.142 69.2821 68.2337 66.8159 65.3819C64.3497 62.5301 62.9488 58.9113 62.852 55.1422C62.7552 51.3732 63.9684 47.6873 66.2849 44.7126C68.6014 41.7379 71.8778 39.6586 75.5557 38.8291C79.2336 37.9996 83.0853 38.4712 86.4544 40.1636C89.8235 41.8559 92.5015 44.6643 94.0319 48.11C95.5623 51.5556 95.8504 55.4254 94.8471 59.0598C93.8438 62.6941 91.6112 65.868 88.5298 68.0406C85.0018 70.5281 80.6308 71.5139 76.3766 70.7816Z" fill="#37474F"/>
<path opacity="0.3" d="M72.0251 43.3449C73.483 42.3917 75.1241 41.7538 76.843 41.4722C77.7165 41.3176 78.6033 41.2503 79.4901 41.2713C80.3861 41.2954 81.2778 41.4039 82.1534 41.5953C83.9157 42.0176 85.5708 42.8022 87.0134 43.899C88.4292 44.978 89.6322 46.3107 90.5612 47.8291C89.3284 46.6248 87.9781 45.547 86.5306 44.6118C85.8186 44.1681 85.0721 43.7824 84.2983 43.4583C83.5362 43.1258 82.7442 42.8665 81.9331 42.684C80.3116 42.3073 78.6414 42.1849 76.9823 42.3211C75.2947 42.4613 73.6302 42.805 72.0251 43.3449Z" fill="#EBEBEB"/>
<path opacity="0.3" d="M82.2086 67.2948C80.5442 67.8149 78.7895 67.9815 77.057 67.7841C76.1774 67.6958 75.309 67.5189 74.465 67.256C73.6091 66.9848 72.7813 66.6322 71.9928 66.203C70.416 65.3169 69.0411 64.1119 67.9558 62.6649C66.8879 61.2401 66.0936 59.6296 65.6133 57.915C66.471 59.4091 67.4761 60.8137 68.6135 62.1076C69.1774 62.7296 69.7906 63.305 70.4474 63.828C71.0903 64.3558 71.7813 64.8223 72.5112 65.2212C73.9676 66.0261 75.5407 66.5989 77.1736 66.919C78.8308 67.2457 80.5212 67.3719 82.2086 67.2948Z" fill="#EBEBEB"/>
<path d="M41.2095 76.6454C43.1697 79.4804 45.4215 83.1254 48.9628 84.768C49.3514 84.9592 49.7927 85.015 50.2167 84.9268C51.7848 85.6914 52.6143 85.1795 52.6143 85.1795C54.2926 85.442 55.0702 84.8004 55.0702 84.8004C55.0702 84.8004 56.9202 85.6752 57.6363 84.6449C58.4398 83.4882 55.6923 82.4871 54.5032 81.0096C51.801 77.6206 48.9077 72.051 48.2273 70.998L41.2095 76.6454Z" fill="#D3766A"/>
<path d="M49.1768 79.4481C49.9558 80.4538 50.8023 81.4053 51.7105 82.296C52.7637 83.2029 53.8836 84.0292 55.0607 84.7682C55.0682 84.7732 55.0735 84.7809 55.0756 84.7897C55.0776 84.7985 55.0762 84.8078 55.0717 84.8157C55.0672 84.8235 55.0598 84.8293 55.0511 84.8319C55.0425 84.8345 55.0331 84.8338 55.025 84.8297C52.6096 83.6262 50.571 81.7826 49.1315 79.4999C49.0991 79.4319 49.1379 79.3995 49.1768 79.4481Z" fill="#263238"/>
<path d="M46.8957 80.783C47.7414 81.6935 49.2382 83.2843 52.6337 85.1408C52.6337 85.1408 52.6337 85.17 52.6337 85.1635C50.3431 84.281 48.3437 82.7776 46.8601 80.8219C46.805 80.7603 46.8406 80.7215 46.8957 80.783Z" fill="#263238"/>
<path d="M45.684 81.5222C47.1809 83.0159 48.3149 83.7676 50.22 84.9178C50.22 84.9178 50.22 84.9437 50.22 84.9372C47.9261 83.8583 47.2166 83.207 45.6452 81.5676C45.5707 81.5093 45.6257 81.4639 45.684 81.5222Z" fill="#263238"/>
<path d="M39.6349 77.4171L48.7069 70.3344L43.4127 62.931C44.8577 59.5712 47.3007 52.9292 47.9487 50.4538C48.7101 47.554 47.3007 47.0388 45.0327 49.0671C39.8001 53.7068 34.0167 62.2409 33.7899 63.9711C33.4562 66.4594 39.6349 77.4171 39.6349 77.4171Z" fill="#0040FE"/>
<path d="M39.3205 74.3647C39.7968 73.8269 42.1069 71.9509 42.6901 71.4908C43.2733 71.0308 45.6612 69.2617 46.2541 68.7887C46.2865 68.7628 46.3319 68.7887 46.2995 68.8308C45.7163 69.3071 43.458 71.264 42.8813 71.7306C42.3046 72.1972 39.9653 74.0407 39.34 74.3939C39.3238 74.4068 39.3043 74.3842 39.3205 74.3647Z" fill="#263238"/>
<path d="M46.7015 54.8599C45.8558 57.4519 44.6668 60.1055 43.6688 62.6359C43.6235 62.7493 43.5814 62.853 43.549 62.9599C43.5539 62.9452 43.5539 62.9293 43.549 62.9145C44.6927 64.7484 46.1863 66.6827 47.437 68.4809L48.7168 70.305L48.4673 70.4864L48.6973 70.2791V70.3017L47.3138 68.5521C45.9757 66.7701 44.4464 64.9007 43.2768 63.015C43.2513 62.965 43.2444 62.9076 43.2574 62.853C43.3513 62.5484 43.468 62.273 43.5814 61.9782C44.521 59.6907 45.7198 57.0923 46.708 54.834L46.7015 54.8599Z" fill="#263238"/>
<path d="M46.7824 55.4043C46.6244 55.8003 46.3811 56.1565 46.0696 56.4476C46.3126 56.1074 46.5135 55.7251 46.7824 55.4043Z" fill="#263238"/>
<path d="M47.2456 47.6281C47.2456 47.6281 49.6302 53.4374 51.9404 53.7063C53.6673 53.9104 53.4146 50.3821 53.4146 50.3821C53.4146 50.3821 51.8108 45.7327 47.2456 47.6281Z" fill="#D3766A"/>
<path d="M49.5881 48.0206C49.5395 48.3932 50.3009 51.2995 51.9987 51.698C52.88 51.9021 53.4988 49.1352 53.4988 49.1352L53.6219 48.9473L55.365 46.3034L52.8119 42.8334L52.4296 42.3604C52.4296 42.3604 52.0019 43.1153 51.477 44.0614L51.3993 44.1942C51.3701 44.2493 51.341 44.2979 51.3118 44.3465C51.234 44.489 51.1498 44.6316 51.072 44.7774C50.9943 44.9232 50.9554 44.9945 50.8971 45.1014L50.7156 45.4481C50.2823 46.2792 49.9056 47.1387 49.5881 48.0206Z" fill="#D3766A"/>
<path d="M51.4641 44.0646C51.4478 44.9868 51.6324 45.9015 52.005 46.7452C52.3776 47.5889 52.9294 48.3414 53.622 48.9505L55.3651 46.3067L52.812 42.8334L52.4297 42.3604C52.4297 42.3604 51.989 43.1153 51.4641 44.0646Z" fill="#263238"/>
<path d="M60.669 41.3393C61.5049 46.8473 58.307 47.9586 57.1244 48.1433C56.0455 48.3085 52.3616 48.7233 50.9684 43.3449C49.5752 37.9665 51.84 35.8281 54.2927 35.3161C56.7453 34.8042 59.833 35.8443 60.669 41.3393Z" fill="#D3766A"/>
<path d="M51.0042 43.2964C52.0637 43.4616 52.4006 41.0284 52.4006 41.0284C52.4006 41.0284 56.9366 40.3804 57.4356 36.7127C57.9638 38.229 59.0572 39.4826 60.4877 40.2119C60.4877 40.2119 60.4391 36.1684 57.2477 35.2936C57.2477 35.2936 53.3143 33.7384 50.9912 36.8293C48.6681 39.9203 50.2946 43.1862 51.0042 43.2964Z" fill="#263238"/>
<path d="M57.4583 36.4473C57.4967 37.0181 57.4116 37.5906 57.2088 38.1256C57.0149 38.6702 56.7104 39.1688 56.3146 39.5901C56.2122 39.6944 56.104 39.7928 55.9906 39.8849L55.8286 40.0307C55.7735 40.0728 55.7119 40.1149 55.6536 40.1538C55.5337 40.2348 55.4171 40.3191 55.294 40.3936C55.1708 40.4681 55.0412 40.5264 54.9116 40.588C54.8468 40.6171 54.7853 40.6528 54.7172 40.6787L54.5164 40.7532L54.1146 40.8925C53.8392 40.9606 53.5606 41.0157 53.2852 41.0675C53.5476 40.9606 53.8165 40.8828 54.0725 40.7759L54.4516 40.6042L54.6427 40.5167C54.7043 40.4843 54.7626 40.4487 54.8209 40.413L55.1773 40.2024C55.2907 40.1279 55.3976 40.0404 55.5013 39.9594L55.6666 39.8395L55.8188 39.7002C55.9208 39.6102 56.0181 39.515 56.1104 39.4151C56.4861 39.015 56.7907 38.5537 57.0112 38.0511C57.1246 37.7989 57.2167 37.5377 57.2866 37.2702C57.3684 37.0016 57.4259 36.7262 57.4583 36.4473Z" fill="#263238"/>
<path d="M52.1316 43.092C52.1316 43.092 50.8097 41.4396 50.0515 41.9224C49.2934 42.4051 50.3755 44.8384 51.3119 45.1397C51.4306 45.1845 51.5572 45.2048 51.6839 45.1994C51.8107 45.1939 51.9351 45.1629 52.0495 45.1081C52.164 45.0533 52.2661 44.9759 52.3499 44.8805C52.4336 44.7852 52.4971 44.6738 52.5366 44.5532L52.1316 43.092Z" fill="#D3766A"/>
<path d="M50.3755 42.6289V42.6548C51.0397 42.8751 51.4188 43.4519 51.6974 44.061C51.6559 43.9984 51.6013 43.9456 51.5373 43.9062C51.4734 43.8668 51.4017 43.8417 51.3271 43.8328C51.2525 43.8239 51.1769 43.8312 51.1054 43.8544C51.034 43.8776 50.9685 43.916 50.9133 43.967C50.9133 43.967 50.9133 44.0059 50.9328 44.0027C51.0438 43.9582 51.166 43.9496 51.2822 43.9781C51.3984 44.0066 51.5028 44.0707 51.5808 44.1614C51.7064 44.3144 51.8151 44.4806 51.9048 44.6571C51.9404 44.7122 52.0408 44.6571 52.0149 44.6085C51.9825 43.7694 51.2665 42.6548 50.3755 42.6289Z" fill="#263238"/>
<path d="M59.9205 41.5407C59.7909 41.5407 59.6678 41.5083 59.5382 41.4888C59.4017 41.4877 59.269 41.4435 59.1591 41.3625C59.1307 41.3291 59.1137 41.2874 59.1108 41.2436C59.1079 41.1999 59.1191 41.1563 59.1429 41.1195C59.202 41.0547 59.2773 41.0068 59.3609 40.9806C59.4446 40.9544 59.5337 40.9509 59.6192 40.9704C59.7985 40.9828 59.9664 41.0627 60.089 41.194C60.1154 41.2251 60.1322 41.2633 60.1373 41.3038C60.1424 41.3444 60.1357 41.3855 60.1178 41.4223C60.0999 41.459 60.0718 41.4898 60.0368 41.5108C60.0017 41.5318 59.9613 41.5422 59.9205 41.5407Z" fill="#263238"/>
<path d="M56.2757 41.0931C56.402 41.0607 56.5154 41.0121 56.6386 40.97C56.7732 40.9429 56.8957 40.8737 56.9885 40.7724C57.0103 40.7346 57.0192 40.6909 57.014 40.6476C57.0087 40.6044 56.9895 40.564 56.9593 40.5326C56.8894 40.4796 56.8066 40.4462 56.7194 40.436C56.6322 40.4257 56.5439 40.439 56.4636 40.4743C56.2879 40.5263 56.1378 40.6418 56.0424 40.7983C56.0273 40.8337 56.0219 40.8725 56.027 40.9107C56.0321 40.9489 56.0474 40.9849 56.0713 41.0151C56.0952 41.0453 56.1268 41.0685 56.1628 41.0823C56.1987 41.096 56.2378 41.0997 56.2757 41.0931Z" fill="#263238"/>
<path d="M57.0596 42.208C57.0596 42.208 57.0337 42.2307 57.0337 42.2469C57.0823 42.6227 57.0758 43.0634 56.7454 43.2189C56.7454 43.2189 56.7454 43.2448 56.7454 43.2416C57.1633 43.1411 57.1666 42.5579 57.0596 42.208Z" fill="#263238"/>
<path d="M56.7001 41.8478C56.0878 41.8478 56.1558 43.0822 56.7228 43.0725C57.2898 43.0628 57.1991 41.8348 56.7001 41.8478Z" fill="#263238"/>
<path d="M56.4504 41.9258C56.3467 42.0003 56.2495 42.1299 56.1264 42.1493C56.0033 42.1688 55.8575 42.0489 55.7538 41.9322C55.7538 41.9322 55.7344 41.9322 55.7344 41.9484C55.7344 42.1817 55.8478 42.4182 56.1005 42.4377C56.3532 42.4571 56.4861 42.24 56.5314 42.0003C56.5314 41.9582 56.4893 41.8934 56.4504 41.9258Z" fill="#263238"/>
<path d="M59.1785 42.0811C59.1785 42.0811 59.2109 42.0973 59.2109 42.1135C59.2109 42.4925 59.2725 42.9267 59.6191 43.0433V43.066C59.1947 43.0174 59.1169 42.4439 59.1785 42.0811Z" fill="#263238"/>
<path d="M59.5058 41.6734C60.1149 41.6086 60.1992 42.8333 59.6354 42.8916C59.0716 42.9499 58.9971 41.7285 59.5058 41.6734Z" fill="#263238"/>
<path d="M59.7521 41.7216C59.8623 41.7832 59.9757 41.8998 60.1053 41.9031C60.2349 41.9063 60.358 41.7702 60.4487 41.6406H60.4682C60.4908 41.8739 60.4163 42.1234 60.1668 42.1752C59.9174 42.2271 59.7618 42.0262 59.6873 41.7929C59.6711 41.7637 59.7068 41.6957 59.7521 41.7216Z" fill="#263238"/>
<path d="M58.6959 43.7405C58.6959 43.7405 58.7866 44.314 58.7899 44.5829C58.2589 44.5953 57.7322 44.6814 57.2249 44.8389C57.1083 44.881 57.1083 44.7806 57.2249 44.6963C57.6182 44.4533 58.0752 44.3337 58.5371 44.3529C58.5533 44.2784 58.3849 43.4716 58.427 43.4684C58.6382 43.4832 58.8464 43.5268 59.0458 43.598C58.8935 42.3959 58.5533 41.2295 58.4237 40.034C58.4242 40.0258 58.4271 40.018 58.4323 40.0116C58.4374 40.0052 58.4444 40.0006 58.4523 39.9984C58.4602 39.9963 58.4686 39.9967 58.4763 39.9996C58.4839 40.0025 58.4905 40.0077 58.495 40.0145C58.8962 41.2544 59.1751 42.5306 59.3277 43.8248C59.3666 43.9771 58.8061 43.7794 58.6959 43.7405Z" fill="#263238"/>
<path d="M58.1322 44.6285C58.1322 44.6285 57.8827 45.2765 57.4842 45.351C57.0144 45.4255 56.8556 44.8585 57.374 44.6155C57.6231 44.5498 57.8855 44.5543 58.1322 44.6285Z" fill="#263238"/>
<path d="M57.9377 44.9908C57.8351 45.1656 57.6692 45.2944 57.4744 45.3504C57.4277 45.3633 57.3787 45.3662 57.3308 45.3589C57.2829 45.3515 57.2371 45.3341 57.1964 45.3078C57.1557 45.2815 57.121 45.2468 57.0947 45.2062C57.0683 45.1655 57.0509 45.1197 57.0435 45.0718C57.523 44.7899 57.7919 44.8612 57.9377 44.9908Z" fill="#FF99BA"/>
<path d="M28.0161 27.7372C28.015 29.3945 28.4748 31.0196 29.3439 32.4308C30.2131 33.842 31.4574 34.9837 32.938 35.7286C34.4186 36.4734 36.0771 36.7919 37.7282 36.6486C39.3794 36.5053 40.9582 35.9058 42.2883 34.917L46.672 36.038L44.8479 31.9556C45.4902 30.7562 45.8504 29.4261 45.9012 28.0666C45.9519 26.707 45.6919 25.3537 45.1409 24.1097C44.5899 22.8658 43.7624 21.7639 42.7213 20.8879C41.6803 20.012 40.4532 19.385 39.1334 19.0547C37.8135 18.7244 36.4357 18.6995 35.1048 18.982C33.7739 19.2644 32.525 19.8467 31.453 20.6845C30.381 21.5223 29.5143 22.5936 28.9187 23.8169C28.3232 25.0401 28.0145 26.3831 28.0161 27.7436V27.7372Z" fill="white"/>
<path d="M28.0162 27.7375C28.1555 35.1895 36.343 39.1326 42.3176 34.8072L46.7078 35.8991L46.5425 36.0967L44.7119 32.0208L44.6795 31.9495C47.44 26.9794 44.6374 20.5285 39.1197 19.1548C33.5825 17.6482 27.9838 22.0319 28.0162 27.7375ZM28.0162 27.7375C28.0389 20.1235 36.9197 15.9569 42.7971 20.8039C46.0371 23.4316 47.0415 28.3726 44.9841 32.0305V31.8944L46.7952 35.9801L46.9151 36.249L46.63 36.1745L42.256 35.0308C36.6508 39.2752 28.0551 35.2835 28 27.7375H28.0162Z" fill="#263238"/>
<path d="M37.5451 28.9263V29.8983C37.5473 29.9968 37.5295 30.0947 37.4929 30.1861C37.4562 30.2775 37.4014 30.3605 37.3317 30.4302C37.2621 30.4998 37.1791 30.5546 37.0877 30.5913C36.9962 30.6279 36.8984 30.6457 36.7999 30.6435C36.6025 30.6426 36.4135 30.5639 36.2739 30.4243C36.1343 30.2847 36.0555 30.0957 36.0547 29.8983V28.3334C36.0547 28.3334 36.0547 28.3334 36.0547 28.301C36.0547 28.2686 36.0547 28.301 36.0547 28.2718C36.0604 28.076 36.1407 27.8897 36.2793 27.7512C36.4178 27.6127 36.604 27.5323 36.7999 27.5266C37.0297 27.5366 37.2592 27.5 37.4745 27.419C37.6898 27.3379 37.8865 27.2142 38.0527 27.0551C38.2189 26.896 38.3511 26.7049 38.4415 26.4933C38.5318 26.2817 38.5784 26.0541 38.5784 25.824C38.5784 25.5939 38.5318 25.3663 38.4415 25.1547C38.3511 24.9431 38.2189 24.752 38.0527 24.5929C37.8865 24.4338 37.6898 24.31 37.4745 24.229C37.2592 24.148 37.0297 24.1113 36.7999 24.1214C36.5054 24.1197 36.2156 24.195 35.9593 24.34C35.7029 24.4849 35.489 24.6944 35.3386 24.9476C35.2894 25.034 35.2233 25.1098 35.1444 25.1704C35.0655 25.2311 34.9753 25.2753 34.879 25.3007C34.7828 25.326 34.6824 25.3319 34.5839 25.318C34.4853 25.3041 34.3906 25.2707 34.3051 25.2197C34.2212 25.17 34.148 25.1042 34.0896 25.0261C34.0312 24.9481 33.9887 24.8593 33.9646 24.7648C33.9405 24.6703 33.9353 24.572 33.9493 24.4755C33.9632 24.379 33.996 24.2862 34.0459 24.2024C34.3112 23.7436 34.6865 23.3579 35.1378 23.0801C35.5892 22.8022 36.1025 22.6409 36.6317 22.6107C37.1608 22.5804 37.6892 22.6822 38.1693 22.9068C38.6493 23.1314 39.0661 23.4718 39.382 23.8974C39.6979 24.3229 39.903 24.8204 39.979 25.3449C40.055 25.8695 39.9994 26.4047 39.8172 26.9024C39.6351 27.4001 39.3321 27.8448 38.9355 28.1964C38.5389 28.5479 38.0611 28.7954 37.5451 28.9166V28.9263ZM37.5451 32.257V32.5292C37.5473 32.6276 37.5295 32.7255 37.4929 32.817C37.4562 32.9084 37.4014 32.9914 37.3317 33.061C37.2621 33.1307 37.1791 33.1855 37.0877 33.2222C36.9962 33.2588 36.8984 33.2766 36.7999 33.2744C36.6022 33.2744 36.4127 33.1959 36.2729 33.0561C36.1332 32.9164 36.0547 32.7268 36.0547 32.5292V32.257C36.0572 32.0602 36.1365 31.8721 36.2757 31.7329C36.4149 31.5937 36.603 31.5143 36.7999 31.5118C36.898 31.511 36.9953 31.5296 37.0861 31.5668C37.1769 31.6039 37.2594 31.6588 37.3287 31.7282C37.3981 31.7975 37.453 31.88 37.4901 31.9708C37.5273 32.0616 37.5459 32.1589 37.5451 32.257Z" fill="#0040FE"/>
<path d="M14.823 151.716C57.2216 151.515 104.778 151.515 147.177 151.716C104.778 151.914 57.2216 151.914 14.823 151.716Z" fill="#263238"/>
</svg>
